<svg width="126" height="126" viewBox="0 0 126 126" fill="none" xmlns="http://www.w3.org/2000/svg">
<circle cx="63" cy="63" r="63" fill="url(#paint0_linear_187_92)"/>
<circle cx="63" cy="63" r="38" fill="white"/>
<circle cx="63" cy="63" r="25" fill="url(#paint1_linear_187_92)"/>
<path fill-rule="evenodd" clip-rule="evenodd" d="M60.1869 77.3436C64.6982 71.435 68.5913 68.4913 71.8663 68.5125C68.4942 69.709 64.9285 73.7901 61.1694 80.7558C75.8366 83.0298 72.3287 68.7746 77 64.8567C66.1866 64.0255 60.5747 68.1878 60.1643 77.3436H60.1869ZM59.2622 74.5428C60.6676 67.8224 64.1177 64.2293 69.6124 63.7634C69.3611 59.2128 61.5362 53.2328 62.0941 45C47.1765 55.64 46.0591 67.4165 58.742 80.3296C55.7719 70.5208 56.504 62.0498 60.9382 54.9164C59.263 58.0454 58.7043 64.584 59.2622 74.5322V74.5428Z" fill="white"/>
<path d="M69.5208 19.4534C68.7832 19.3605 68.1277 19.1663 67.5541 18.871C66.9805 18.5756 66.5012 18.1896 66.1163 17.7128C65.7403 17.2371 65.4755 16.6818 65.3218 16.0469C65.1693 15.4031 65.1448 14.6908 65.2482 13.9098C65.3516 13.1288 65.5604 12.4503 65.8744 11.8742C66.1885 11.2982 66.5893 10.8268 67.0768 10.46C67.5733 10.0944 68.1374 9.83985 68.7691 9.69643C69.4008 9.55302 70.0855 9.5278 70.823 9.62077C71.6685 9.72735 72.4004 9.96682 73.0187 10.3392C73.6381 10.7027 74.1165 11.1645 74.4538 11.7245C74.8002 12.2856 74.9679 12.9179 74.9571 13.6214L72.8253 13.3527C72.7885 13.009 72.674 12.7001 72.4816 12.4261C72.2995 12.1444 72.0468 11.9118 71.7236 11.7283C71.4094 11.5459 71.0319 11.427 70.5912 11.3714C70.0335 11.3011 69.5321 11.3584 69.087 11.5432C68.643 11.7192 68.2727 12.0293 67.9761 12.4737C67.6896 12.9105 67.4999 13.4799 67.4069 14.1819C67.3372 14.7084 67.3386 15.1814 67.411 15.6009C67.4936 16.0128 67.6389 16.3657 67.8469 16.6596C68.0549 16.9535 68.3166 17.1872 68.632 17.3608C68.9563 17.5355 69.3299 17.6495 69.7527 17.7028C70.1754 17.7561 70.567 17.7341 70.9274 17.6367C71.2878 17.5394 71.5972 17.3777 71.8558 17.1516C72.1234 16.9266 72.3152 16.6519 72.4313 16.3275L74.5631 16.5962C74.4005 17.2716 74.078 17.8421 73.5957 18.3077C73.1134 18.7732 72.5202 19.1089 71.8163 19.3146C71.1225 19.5126 70.3573 19.5589 69.5208 19.4534Z" fill="white"/>
<path d="M79.5579 21.8276C79.0401 21.6377 78.6019 21.3919 78.2433 21.0903C77.888 20.7803 77.6149 20.4203 77.4242 20.01C77.2334 19.5998 77.1388 19.1539 77.1402 18.6723C77.1449 18.1825 77.2509 17.6684 77.4583 17.13C77.7232 16.4426 78.0904 15.8919 78.5599 15.478C79.0326 15.0559 79.5795 14.7933 80.2006 14.6902C80.8216 14.5871 81.493 14.6679 82.2146 14.9325C82.7239 15.1193 83.1563 15.3677 83.5116 15.6776C83.867 15.9875 84.1358 16.346 84.3181 16.7531C84.5088 17.1634 84.6034 17.6093 84.602 18.0908C84.609 18.5755 84.5072 19.0912 84.2966 19.6378C84.0349 20.317 83.6678 20.8676 83.195 21.2898C82.7255 21.7037 82.1802 21.9621 81.5592 22.0652C80.9466 22.1714 80.2795 22.0922 79.5579 21.8276ZM80.1148 20.3445C80.4204 20.4566 80.715 20.4843 80.9984 20.4275C81.2936 20.3656 81.5564 20.2115 81.787 19.9652C82.026 19.722 82.2301 19.3809 82.3992 18.942C82.5269 18.6107 82.603 18.3125 82.6276 18.0474C82.6555 17.774 82.6334 17.5296 82.5614 17.3141C82.4893 17.0987 82.3743 16.9194 82.2163 16.7764C82.0614 16.6251 81.8694 16.5074 81.6402 16.4233C81.3345 16.3112 81.0357 16.282 80.7438 16.3356C80.4603 16.3924 80.1991 16.5423 79.96 16.7855C79.721 17.0287 79.5153 17.3739 79.343 17.8212C79.2154 18.1525 79.1376 18.4548 79.1098 18.7282C79.0937 18.9964 79.1216 19.2382 79.1936 19.4537C79.2688 19.6609 79.3838 19.8401 79.5387 19.9914C79.6936 20.1428 79.8856 20.2604 80.1148 20.3445Z" fill="white"/>
<path d="M85.1567 23.9822L89.0447 17.9638L90.6674 18.9617L90.0329 20.0933L90.1019 20.1357C90.5319 19.8353 90.9862 19.6963 91.4648 19.7187C91.9483 19.7336 92.4088 19.8755 92.8461 20.1444C93.153 20.3331 93.4055 20.5563 93.6035 20.814C93.814 21.069 93.9523 21.3528 94.0184 21.6653C94.0922 21.9826 94.0788 22.3352 93.9783 22.7231C93.8902 23.1083 93.7012 23.5254 93.411 23.9746L91.0609 27.6125L89.369 26.5723L91.4871 23.2936C91.7047 22.9568 91.8438 22.6501 91.9045 22.3736C91.9728 22.1019 91.9565 21.8617 91.8554 21.6531C91.7591 21.4371 91.5729 21.2441 91.2967 21.0743C91.0051 20.895 90.716 20.8114 90.4295 20.8235C90.143 20.8356 89.8759 20.9171 89.6282 21.0681C89.3806 21.2192 89.1745 21.4219 89.0101 21.6765L86.8485 25.0225L85.1567 23.9822Z" fill="white"/>
<path d="M94.6295 30.6296C94.1614 30.2244 93.9117 29.819 93.8804 29.4134C93.8552 29.0012 94.0562 28.5602 94.4835 28.0902L97.0295 25.2905L96.0526 24.4449L97.118 23.2733L98.0949 24.1189L99.413 22.6694L101.035 23.8252L99.5908 25.4137L100.69 26.365L99.6246 27.5365L98.5255 26.5853L96.2233 29.117C96.0728 29.2824 96.0112 29.4302 96.0384 29.5602C96.0656 29.6903 96.1539 29.8199 96.3032 29.949L96.9341 30.4952L95.8507 31.6865L94.6295 30.6296Z" fill="white"/>
<path d="M98.6456 34.8462C98.3664 34.5089 98.1763 34.1526 98.0754 33.7771C97.9815 33.3962 97.9755 33.0086 98.0572 32.6144C98.1459 32.2146 98.3282 31.8151 98.6039 31.4159C98.8853 31.0236 99.2553 30.6467 99.714 30.2854C100.335 29.7962 100.941 29.4721 101.532 29.3133C102.136 29.1558 102.691 29.1568 103.196 29.3162C103.708 29.47 104.149 29.7707 104.52 30.2181C104.753 30.5004 104.918 30.7912 105.015 31.0906C105.118 31.3845 105.157 31.678 105.131 31.971C105.113 32.2586 105.029 32.5236 104.88 32.7661L104.948 32.8487L105.952 32.1601L107.14 33.5954L101.467 38.065L100.279 36.6298L101.191 35.809L101.123 35.7264C100.714 35.8664 100.283 35.8594 99.8289 35.7052C99.3876 35.5525 98.9932 35.2661 98.6456 34.8462ZM100.358 34.4011C100.586 34.6765 100.834 34.8564 101.102 34.9409C101.376 35.0322 101.656 35.0392 101.941 34.962C102.227 34.8847 102.504 34.7404 102.772 34.5291L103.333 34.0872C103.608 33.8704 103.808 33.6332 103.933 33.3756C104.071 33.1193 104.123 32.851 104.089 32.5706C104.061 32.2971 103.947 32.0399 103.747 31.799C103.508 31.5099 103.242 31.3218 102.948 31.2347C102.66 31.1544 102.349 31.1662 102.015 31.27C101.689 31.3682 101.349 31.5562 100.996 31.8342C100.657 32.1011 100.398 32.3793 100.218 32.6689C100.038 32.9585 99.9582 33.2491 99.978 33.5406C99.9978 33.8321 100.124 34.1189 100.358 34.4011Z" fill="white"/>
<path d="M104.254 42.9792C104.003 42.5083 103.851 42.0417 103.799 41.5795C103.755 41.1132 103.806 40.6632 103.953 40.2295C104.104 39.8037 104.345 39.4121 104.676 39.0546C105.011 38.705 105.428 38.4036 105.926 38.1503C106.433 37.893 106.932 37.7347 107.421 37.6755C107.919 37.6123 108.386 37.6445 108.823 37.7721C109.271 37.9036 109.676 38.1267 110.038 38.4415C110.409 38.7523 110.724 39.151 110.983 39.6376C111.268 40.1713 111.417 40.6993 111.429 41.2215C111.454 41.7475 111.349 42.23 111.113 42.669C110.885 43.104 110.535 43.4558 110.065 43.7244L109.167 42.0408C109.364 41.8913 109.503 41.7209 109.585 41.5297C109.671 41.3463 109.704 41.1498 109.684 40.9404C109.677 40.7347 109.619 40.5298 109.51 40.3258C109.389 40.0981 109.233 39.9225 109.045 39.7988C108.864 39.6711 108.658 39.5913 108.426 39.5593C108.203 39.5233 107.957 39.5331 107.691 39.5887C107.428 39.6522 107.152 39.7575 106.862 39.9046C106.436 40.1211 106.111 40.3557 105.888 40.6086C105.677 40.8652 105.554 41.1323 105.518 41.4099C105.494 41.6913 105.556 41.9693 105.702 42.244C105.832 42.4873 105.983 42.6749 106.156 42.8067C106.341 42.9423 106.537 43.0223 106.744 43.0468C106.963 43.075 107.176 43.0518 107.382 42.9773L108.28 44.6609C107.764 44.8828 107.252 44.9581 106.744 44.887C106.236 44.8159 105.768 44.6195 105.341 44.2977C104.914 43.976 104.551 43.5365 104.254 42.9792Z" fill="white"/>
<path d="M107.45 50.1617C107.255 49.5818 107.248 49.1089 107.43 48.743C107.621 48.3743 108.022 48.0917 108.633 47.8952L112.277 46.7246L111.869 45.5144L113.393 45.0245L113.802 46.2348L115.689 45.6287L116.495 47.4237L114.427 48.0879L114.887 49.4494L113.362 49.9392L112.903 48.5777L109.608 49.6363C109.392 49.7055 109.263 49.803 109.219 49.9287C109.176 50.0545 109.185 50.2098 109.248 50.3947L109.512 51.1763L107.961 51.6744L107.45 50.1617Z" fill="white"/>
<path d="M109.289 59.755C109.255 59.2163 109.335 58.7506 109.529 58.3579C109.722 57.9652 110.026 57.6591 110.439 57.4395C110.861 57.2194 111.38 57.091 111.996 57.0544L116.531 56.7849L116.653 58.7323L112.647 58.9704C112.267 58.993 111.948 59.0562 111.691 59.1602C111.435 59.2729 111.24 59.4307 111.107 59.6337C110.984 59.8449 110.933 60.1094 110.953 60.4274C110.973 60.7542 111.072 61.0275 111.249 61.2475C111.426 61.4674 111.65 61.6314 111.92 61.7394C112.2 61.8469 112.498 61.8913 112.815 61.8725L116.834 61.6336L116.956 63.581L109.677 64.0135L109.561 62.1456L110.886 61.987L110.881 61.9076C110.4 61.7589 110.019 61.489 109.741 61.0978C109.471 60.7149 109.321 60.2673 109.289 59.755Z" fill="white"/>
<path d="M109.085 69.1765C109.148 68.7027 109.259 68.284 109.417 67.9204C109.584 67.558 109.79 67.2539 110.033 67.0081C110.275 66.7712 110.55 66.5964 110.857 66.4837C111.174 66.3722 111.508 66.3344 111.86 66.3701L111.606 68.2785C111.377 68.2763 111.184 68.3187 111.026 68.4057C110.877 68.4939 110.755 68.6212 110.66 68.7875C110.572 68.9638 110.513 69.1704 110.481 69.4073C110.433 69.767 110.465 70.0432 110.576 70.2358C110.687 70.4372 110.859 70.5527 111.093 70.5824C111.281 70.6064 111.431 70.5808 111.542 70.5056C111.661 70.4315 111.762 70.297 111.843 70.1021C111.931 69.917 112.02 69.6607 112.11 69.333C112.289 68.7401 112.487 68.2521 112.703 67.8691C112.919 67.486 113.183 67.2162 113.497 67.0597C113.81 66.9032 114.201 66.8546 114.669 66.914C115.136 66.9734 115.525 67.1476 115.834 67.4366C116.141 67.7345 116.36 68.1191 116.489 68.5906C116.627 69.0632 116.657 69.5978 116.577 70.1945C116.501 70.7648 116.34 71.2486 116.095 71.6457C115.858 72.0528 115.553 72.3532 115.179 72.5467C114.814 72.7501 114.405 72.8365 113.951 72.8057L114.206 70.8973C114.404 70.9224 114.568 70.8941 114.697 70.8125C114.835 70.7407 114.946 70.6298 115.03 70.4799C115.113 70.3387 115.168 70.1672 115.194 69.9654C115.235 69.6583 115.201 69.4041 115.09 69.2027C114.988 69.0112 114.82 68.9007 114.586 68.871C114.415 68.8493 114.269 68.8799 114.148 68.9627C114.035 69.0554 113.932 69.2118 113.839 69.432C113.745 69.6521 113.647 69.943 113.544 70.3047C113.386 70.8735 113.201 71.3363 112.989 71.693C112.776 72.0498 112.51 72.3015 112.188 72.448C111.876 72.5958 111.481 72.6394 111.005 72.5789C110.51 72.5161 110.105 72.3308 109.789 72.023C109.472 71.7241 109.255 71.3306 109.137 70.8428C109.019 70.3549 109.002 69.7995 109.085 69.1765Z" fill="white"/>
<path d="M112.545 80.9257L113.142 81.1485L113.875 81.6206L113.567 80.8094L113.478 80.1797L114.285 80.0542L114.378 80.6715L114.356 81.5444L114.924 80.8753L115.416 80.4761L115.931 81.0944L115.435 81.5061L114.663 81.9145L115.531 82.0395L116.129 82.2623L115.832 83.0185L115.235 82.7958L114.498 82.336L114.793 83.1425L114.882 83.7722L114.08 83.8853L113.982 83.2804L114.016 82.4122L113.436 83.0766L112.944 83.4759L112.429 82.8575L112.925 82.4458L113.71 82.0421L112.846 81.9047L112.249 81.682L112.545 80.9257Z" fill="white"/>
<path d="M100.518 90.0821C100.963 89.5006 101.458 89.0384 102.003 88.6956C102.548 88.3528 103.128 88.1346 103.743 88.0411C104.352 87.9547 104.978 88.0019 105.621 88.1826C106.271 88.3686 106.919 88.6971 107.566 89.168C108.213 89.639 108.717 90.1492 109.077 90.6987C109.438 91.2482 109.662 91.8202 109.751 92.4145C109.834 93.016 109.785 93.6205 109.603 94.2279C109.421 94.8353 109.108 95.4298 108.663 96.0113C108.153 96.6779 107.581 97.1827 106.945 97.5258C106.316 97.8742 105.669 98.0544 105.003 98.0667C104.332 98.086 103.685 97.9185 103.062 97.5643L104.348 95.8836C104.673 96.0208 105.005 96.0749 105.344 96.0458C105.685 96.029 106.017 95.9283 106.339 95.7434C106.656 95.5657 106.947 95.3031 107.213 94.9556C107.549 94.516 107.744 94.0616 107.797 93.5925C107.858 93.1287 107.762 92.6617 107.511 92.1916C107.261 91.7339 106.846 91.2933 106.264 90.87C105.828 90.5525 105.405 90.3217 104.994 90.1776C104.586 90.0458 104.2 89.9963 103.835 90.0291C103.471 90.0618 103.133 90.1697 102.824 90.3527C102.509 90.5428 102.224 90.8045 101.969 91.1378C101.714 91.4711 101.541 91.8148 101.452 92.169C101.362 92.5231 101.354 92.8656 101.43 93.1963C101.499 93.5341 101.651 93.832 101.884 94.0898L100.598 95.7705C100.074 95.301 99.723 94.747 99.5436 94.1086C99.3643 93.4702 99.3553 92.8013 99.5168 92.1019C99.6802 91.4149 100.014 90.7416 100.518 90.0821Z" fill="white"/>
<path d="M93.4821 97.4618C93.9048 97.1137 94.3387 96.8607 94.7836 96.7028C95.2343 96.5516 95.6898 96.495 96.1499 96.533C96.61 96.571 97.055 96.7082 97.485 96.9446C97.9209 97.1878 98.3289 97.5291 98.7092 97.9686C99.1947 98.5299 99.5079 99.1114 99.6488 99.7133C99.7955 100.322 99.7633 100.916 99.5522 101.495C99.3411 102.074 98.9409 102.606 98.3518 103.091C97.936 103.433 97.5027 103.68 97.0519 103.831C96.6011 103.983 96.1492 104.036 95.696 103.993C95.2359 103.955 94.7909 103.817 94.3609 103.581C93.9239 103.35 93.5124 103.012 93.1263 102.566C92.6467 102.011 92.3335 101.43 92.1867 100.821C92.0458 100.219 92.081 99.6286 92.2921 99.0495C92.4963 98.4761 92.8929 97.9469 93.4821 97.4618ZM94.5366 98.6603C94.2871 98.8657 94.1185 99.1029 94.0308 99.372C93.942 99.6535 93.9515 99.9525 94.0592 100.269C94.16 100.591 94.3654 100.932 94.6754 101.29C94.9094 101.561 95.1389 101.771 95.364 101.921C95.5949 102.079 95.8243 102.179 96.0522 102.223C96.2801 102.267 96.4966 102.257 96.7017 102.192C96.9127 102.134 97.1118 102.028 97.2989 101.874C97.5484 101.668 97.7205 101.428 97.8151 101.154C97.9028 100.885 97.8963 100.589 97.7955 100.267C97.6947 99.9444 97.4864 99.6007 97.1705 99.2356C96.9365 98.9651 96.7041 98.7513 96.4731 98.5941C96.2411 98.4493 96.0112 98.355 95.7833 98.3111C95.5612 98.2739 95.3447 98.2843 95.1338 98.3422C94.9228 98.4002 94.7237 98.5062 94.5366 98.6603Z" fill="white"/>
<path d="M88.826 101.183L92.3177 107.429L90.6337 108.325L89.9301 107.233L89.8585 107.271C89.9178 107.783 89.8208 108.238 89.5675 108.635C89.3185 109.04 88.9671 109.363 88.5132 109.604C88.1948 109.774 87.8719 109.88 87.5448 109.923C87.214 109.978 86.8926 109.958 86.5806 109.862C86.2607 109.77 85.9516 109.587 85.6534 109.312C85.3516 109.049 85.0704 108.685 84.8098 108.219L82.6992 104.444L84.4549 103.509L86.357 106.912C86.5524 107.261 86.7591 107.529 86.977 107.716C87.1869 107.906 87.4098 108.009 87.6458 108.025C87.8861 108.048 88.1495 107.984 88.4362 107.831C88.7387 107.67 88.9544 107.465 89.0833 107.215C89.2121 106.965 89.2693 106.697 89.2548 106.413C89.2404 106.128 89.1593 105.854 89.0116 105.59L87.0704 102.118L88.826 101.183Z" fill="white"/>
<path d="M78.2579 106.009C78.849 105.808 79.3335 105.794 79.7115 105.965C80.0925 106.145 80.3887 106.532 80.6002 107.125L81.8602 110.66L83.0938 110.242L83.621 111.721L82.3875 112.14L83.0398 113.97L81.2135 114.786L80.4986 112.78L79.1109 113.251L78.5836 111.772L79.9714 111.301L78.832 108.104C78.7575 107.895 78.6555 107.771 78.5259 107.73C78.3963 107.69 78.2372 107.702 78.0488 107.766L77.2521 108.036L76.7159 106.532L78.2579 106.009Z" fill="white"/>
<path d="M72.5181 107.36C72.9563 107.288 73.3679 107.301 73.7527 107.399C74.139 107.506 74.4882 107.691 74.8003 107.954C75.1138 108.226 75.3812 108.577 75.6026 109.007C75.815 109.439 75.9701 109.938 76.0679 110.505C76.2003 111.273 76.1924 111.947 76.0442 112.528C75.8886 113.119 75.6157 113.59 75.2256 113.941C74.837 114.301 74.352 114.528 73.7707 114.624C73.404 114.684 73.0633 114.682 72.7486 114.617C72.4354 114.56 72.1542 114.449 71.9049 114.284C71.6572 114.127 71.4615 113.926 71.318 113.68L71.2107 113.698L71.3333 114.889L69.4685 115.195L68.2588 108.18L70.1236 107.874L70.4095 109.052L70.5168 109.034C70.5922 108.618 70.81 108.255 71.1704 107.944C71.5233 107.644 71.9725 107.449 72.5181 107.36ZM72.0756 109.034C71.7179 109.093 71.4355 109.215 71.2286 109.402C71.0127 109.59 70.8692 109.824 70.798 110.105C70.7269 110.386 70.7199 110.692 70.7771 111.024L70.8967 111.717C70.9554 112.058 71.0692 112.344 71.238 112.577C71.3994 112.819 71.6136 112.995 71.8807 113.104C72.1388 113.214 72.4244 113.243 72.7374 113.192C73.1131 113.13 73.4118 112.996 73.6336 112.789C73.8465 112.584 73.9885 112.314 74.0596 111.979C74.1321 111.653 74.1308 111.272 74.0555 110.836C73.9833 110.417 73.862 110.06 73.6915 109.765C73.5211 109.47 73.3009 109.259 73.0308 109.133C72.7607 109.007 72.4423 108.974 72.0756 109.034Z" fill="white"/>
<path d="M62.4417 108.137C62.9856 108.154 63.4768 108.254 63.9153 108.436C64.3536 108.627 64.7304 108.891 65.0458 109.229C65.3521 109.566 65.5839 109.963 65.741 110.419C65.8891 110.875 65.954 111.378 65.9357 111.926C65.9171 112.483 65.8141 112.985 65.6268 113.43C65.4392 113.884 65.1815 114.266 64.8536 114.574C64.5163 114.891 64.1183 115.126 63.6594 115.28C63.2003 115.442 62.6897 115.514 62.1277 115.497C61.5113 115.477 60.9668 115.345 60.494 115.099C60.0119 114.863 59.6326 114.536 59.3561 114.12C59.0794 113.713 58.9363 113.244 58.9268 112.712L60.8712 112.774C60.9085 113.014 60.9925 113.216 61.1231 113.38C61.2447 113.543 61.4039 113.668 61.6007 113.754C61.7881 113.848 61.9996 113.899 62.2353 113.906C62.4982 113.915 62.7311 113.869 62.9341 113.769C63.1367 113.678 63.3092 113.542 63.4513 113.361C63.5932 113.188 63.7047 112.975 63.7858 112.721C63.8578 112.466 63.8991 112.18 63.9098 111.862C63.9254 111.393 63.875 111.002 63.7584 110.688C63.6325 110.383 63.4543 110.147 63.224 109.981C62.9843 109.823 62.7058 109.738 62.3885 109.728C62.1075 109.719 61.8658 109.756 61.6634 109.838C61.4517 109.929 61.2841 110.056 61.1606 110.22C61.0278 110.393 60.9443 110.585 60.91 110.797L58.9656 110.735C59.0202 110.188 59.2039 109.716 59.5166 109.318C59.8293 108.921 60.2341 108.62 60.731 108.414C61.2279 108.209 61.7981 108.116 62.4417 108.137Z" fill="white"/>
<path d="M54.4635 107.346C55.0777 107.463 55.5039 107.689 55.7421 108.022C55.9785 108.365 56.035 108.844 55.9117 109.461L55.1769 113.135L56.4587 113.379L56.1513 114.916L54.8695 114.672L54.489 116.574L52.4898 116.382L52.9067 114.298L51.4646 114.023L51.7721 112.486L53.2141 112.761L53.8786 109.439C53.922 109.222 53.8981 109.064 53.8069 108.966C53.7157 108.867 53.5722 108.799 53.3764 108.762L52.5485 108.604L52.8612 107.041L54.4635 107.346Z" fill="white"/>
<path d="M44.9742 104.212C45.472 104.448 45.8489 104.744 46.1049 105.101C46.3609 105.458 46.4856 105.866 46.4792 106.325C46.4689 106.793 46.3292 107.297 46.0602 107.838L44.0781 111.827L42.2786 110.976L44.0292 107.453C44.1954 107.118 44.295 106.817 44.3281 106.547C44.3531 106.274 44.3075 106.031 44.1912 105.819C44.0629 105.61 43.8518 105.437 43.558 105.298C43.256 105.155 42.9633 105.105 42.6799 105.148C42.3965 105.191 42.1403 105.301 41.9114 105.478C41.6784 105.663 41.4927 105.894 41.3542 106.173L39.5977 109.708L37.7982 108.857L40.979 102.456L42.705 103.272L42.1969 104.477L42.2704 104.512C42.6393 104.175 43.0669 103.984 43.5531 103.939C44.0271 103.897 44.5008 103.989 44.9742 104.212Z" fill="white"/>
<path d="M36.7309 99.4566C37.1231 99.7427 37.4429 100.042 37.69 100.355C37.9318 100.675 38.1028 100.998 38.2031 101.326C38.2961 101.648 38.3175 101.967 38.2672 102.284C38.2115 102.608 38.0814 102.911 37.8769 103.192L36.297 102.04C36.4109 101.847 36.4678 101.662 36.4675 101.485C36.4618 101.315 36.408 101.149 36.3062 100.986C36.1916 100.825 36.0363 100.673 35.8402 100.53C35.5423 100.313 35.2801 100.205 35.0533 100.205C34.8193 100.2 34.6317 100.29 34.4905 100.474C34.3765 100.623 34.3259 100.763 34.3388 100.894C34.3463 101.032 34.4173 101.183 34.5518 101.347C34.6736 101.513 34.8589 101.715 35.1078 101.952C35.5493 102.395 35.8882 102.802 36.1246 103.174C36.361 103.545 36.4722 103.902 36.4583 104.246C36.4443 104.589 36.2962 104.945 36.0138 105.313C35.7314 105.682 35.3853 105.927 34.9756 106.048C34.5586 106.163 34.1078 106.16 33.6233 106.039C33.1334 105.925 32.6414 105.688 32.1475 105.327C31.6753 104.983 31.3219 104.609 31.0873 104.206C30.84 103.805 30.7214 103.398 30.7316 102.986C30.7292 102.575 30.8528 102.185 31.1025 101.814L32.6824 102.967C32.563 103.123 32.5079 103.276 32.5172 103.426C32.5138 103.578 32.5585 103.727 32.6512 103.872C32.7367 104.012 32.863 104.142 33.0301 104.264C33.2843 104.45 33.5284 104.545 33.7624 104.55C33.9837 104.556 34.165 104.468 34.3062 104.283C34.4093 104.149 34.4536 104.01 34.4388 103.866C34.4114 103.725 34.3222 103.56 34.1714 103.373C34.0205 103.186 33.8089 102.96 33.5364 102.695C33.1058 102.281 32.7832 101.897 32.5686 101.541C32.354 101.186 32.26 100.836 32.2867 100.491C32.3079 100.153 32.4624 99.7958 32.7502 99.4202C33.0489 99.0304 33.4131 98.7768 33.8428 98.6593C34.2652 98.5366 34.7233 98.5447 35.2169 98.6838C35.7105 98.8228 36.2151 99.0804 36.7309 99.4566Z" fill="white"/>
<path d="M24.5285 96.6469L24.0376 97.0465L23.2575 97.4396L24.1338 97.5733L24.7401 97.8057L24.4584 98.5536L23.8608 98.3314L23.0906 97.8866L23.4117 98.697L23.5288 99.3104L22.7242 99.4469L22.5983 98.8233L22.6099 97.9668L22.0739 98.6452L21.583 99.0449L21.0513 98.4233L21.5422 98.0236L22.3136 97.6204L21.4478 97.4782L20.8415 97.2458L21.1318 96.5081L21.7207 96.7201L22.4805 97.1733L22.1699 96.3544L22.0527 95.7411L22.8574 95.6046L22.9832 96.2282L22.9612 97.0931L23.5059 96.4249L23.9968 96.0253L24.5285 96.6469Z" fill="white"/>
<path d="M22.2002 81.9392C22.5034 82.6017 22.6754 83.2487 22.7161 83.8802C22.7568 84.5117 22.669 85.112 22.4527 85.681C22.2326 86.242 21.885 86.752 21.4097 87.211C20.9261 87.6736 20.3158 88.0654 19.5788 88.3864C18.8417 88.7075 18.1394 88.8874 17.4719 88.9263C16.8043 88.9651 16.183 88.8772 15.608 88.6626C15.0293 88.4398 14.5126 88.1029 14.0578 87.6518C13.6031 87.2006 13.2241 86.6438 12.9209 85.9813C12.5733 85.2218 12.4012 84.4877 12.4045 83.7788C12.3996 83.0736 12.5541 82.4346 12.8681 81.8618C13.1783 81.2809 13.6439 80.8116 14.2648 80.4539L15.1412 82.3687C14.8598 82.5785 14.6493 82.8349 14.5099 83.1379C14.3585 83.4364 14.2868 83.7681 14.2948 84.1328C14.2991 84.4895 14.3918 84.8657 14.573 85.2616C14.8023 85.7625 15.1137 86.1501 15.5074 86.4244C15.8928 86.7022 16.3572 86.8488 16.9005 86.8641C17.4319 86.8749 18.0288 86.736 18.6914 86.4474C19.1882 86.2309 19.6013 85.9832 19.9305 85.7041C20.2477 85.4206 20.4806 85.1157 20.6292 84.7893C20.7778 84.4629 20.8458 84.1232 20.8332 83.7702C20.8169 83.409 20.7219 83.0386 20.5481 82.6589C20.3743 82.2791 20.1509 81.9646 19.8779 81.7153C19.6049 81.466 19.3021 81.2927 18.9695 81.1953C18.6332 81.0899 18.2929 81.0734 17.9486 81.1458L17.0723 79.231C17.7478 79.0142 18.4149 78.9853 19.0736 79.1441C19.7323 79.3029 20.3351 79.6217 20.882 80.1006C21.4169 80.5749 21.8563 81.1878 22.2002 81.9392Z" fill="white"/>
<path d="M19.0448 72.3307C19.1483 72.8609 19.1614 73.3538 19.0842 73.8095C18.9981 74.2669 18.8252 74.6818 18.5656 75.0543C18.3059 75.4268 17.965 75.7379 17.5429 75.9875C17.1118 76.2387 16.6068 76.4181 16.0277 76.5257C15.2882 76.6631 14.6151 76.6441 14.0085 76.4686C13.3929 76.2947 12.8783 75.976 12.4646 75.5124C12.051 75.0489 11.772 74.4477 11.6278 73.7089C11.526 73.1873 11.5181 72.6979 11.6043 72.2405C11.6904 71.7832 11.8641 71.3726 12.1255 71.0088C12.3851 70.6363 12.726 70.3252 13.1481 70.0757C13.5686 69.8174 14.0728 69.6336 14.6608 69.5244C15.3914 69.3886 16.0645 69.4076 16.68 69.5815C17.2867 69.757 17.7969 70.0765 18.2105 70.5401C18.6225 70.995 18.9005 71.5918 19.0448 72.3307ZM17.457 72.6392C17.3959 72.3263 17.2667 72.0666 17.0695 71.86C16.8616 71.6465 16.5899 71.5078 16.2543 71.444C15.917 71.3716 15.5123 71.3793 15.0401 71.467C14.6837 71.5332 14.3831 71.6251 14.1383 71.7427C13.8846 71.8619 13.6823 72.0075 13.5312 72.1797C13.3802 72.3519 13.2832 72.5411 13.2404 72.7472C13.1886 72.955 13.1857 73.1762 13.2315 73.4109C13.2926 73.7238 13.4226 73.9879 13.6216 74.2031C13.8188 74.4096 14.0861 74.5491 14.4234 74.6215C14.7607 74.694 15.1699 74.6855 15.651 74.5961C16.0073 74.5299 16.3124 74.4372 16.5661 74.318C16.8092 74.1917 17.0062 74.0425 17.1573 73.8703C17.2994 73.6998 17.3963 73.5107 17.4481 73.3029C17.4999 73.0951 17.5028 72.8739 17.457 72.6392Z" fill="white"/>
<path d="M18.0054 66.5124L10.7142 66.4187L10.7394 64.5475L12.06 64.4848L12.0611 64.4052C11.574 64.2043 11.2153 63.8988 10.985 63.4888C10.7456 63.0787 10.6294 62.6214 10.6362 62.1171C10.641 61.7632 10.7043 61.4366 10.8263 61.1373C10.9393 60.8291 11.1152 60.5659 11.3539 60.3477C11.5928 60.1207 11.9081 59.9478 12.2997 59.8289C12.6824 59.7011 13.1458 59.6407 13.6899 59.6477L18.0973 59.7043L18.0709 61.6552L14.0989 61.6042C13.6908 61.5989 13.35 61.6432 13.0767 61.737C12.8034 61.822 12.602 61.961 12.4724 62.154C12.3337 62.3469 12.2623 62.6026 12.258 62.9211C12.2534 63.2573 12.3312 63.5415 12.4914 63.7736C12.6515 64.0057 12.8622 64.1854 13.1235 64.3127C13.3848 64.4399 13.6697 64.5055 13.978 64.5095L18.0317 64.5616L18.0054 66.5124Z" fill="white"/>
<path d="M18.8731 55.148C18.7633 55.749 18.5392 56.1684 18.201 56.4062C17.8538 56.6424 17.3632 56.7054 16.7293 56.5951L12.9525 55.9382L12.7232 57.1925L11.1429 56.9176L11.3721 55.6633L9.41673 55.3232L9.58023 53.3698L11.7231 53.7425L11.981 52.3314L13.5614 52.6063L13.3035 54.0174L16.7187 54.6115C16.9419 54.6503 17.1032 54.6244 17.2027 54.5339C17.3022 54.4433 17.3694 54.3022 17.4044 54.1106L17.5525 53.3005L19.1596 53.58L18.8731 55.148Z" fill="white"/>
<path d="M20.4755 49.5979C20.3254 50.006 20.1122 50.3497 19.8361 50.629C19.5513 50.9054 19.2152 51.112 18.8276 51.2489C18.4314 51.3828 17.9869 51.4387 17.494 51.4166C17.0041 51.3861 16.4818 51.2737 15.9269 51.0795C15.1757 50.8165 14.5768 50.4799 14.1303 50.0698C13.6782 49.6483 13.3907 49.1857 13.2676 48.682C13.136 48.1753 13.1698 47.6513 13.3689 47.1099C13.4945 46.7685 13.6633 46.4797 13.8754 46.2438C14.0789 46.0048 14.3156 45.8197 14.5854 45.6886C14.8468 45.5545 15.1223 45.4864 15.4121 45.4845L15.4489 45.3845L14.324 44.9061L14.9627 43.1697L21.826 45.5725L21.1873 47.3089L19.9945 46.9759L19.9578 47.0759C20.2929 47.3436 20.511 47.7067 20.6122 48.1651C20.7079 48.6123 20.6623 49.0899 20.4755 49.5979ZM19.1953 48.4023C19.3178 48.0692 19.3463 47.769 19.2808 47.5016C19.2184 47.226 19.0791 46.9892 18.8628 46.7912C18.6465 46.5933 18.3762 46.4376 18.0518 46.324L17.3732 46.0864C17.0403 45.9699 16.7286 45.9266 16.4381 45.9565C16.1422 45.9751 15.8803 46.0714 15.6525 46.2455C15.4277 46.4112 15.2618 46.6398 15.1545 46.9313C15.0259 47.2811 14.9998 47.601 15.0762 47.8909C15.1557 48.1726 15.3276 48.4255 15.5921 48.6497C15.8479 48.8709 16.1893 49.0562 16.6161 49.2056C17.0259 49.3491 17.4043 49.4205 17.7515 49.4198C18.0986 49.4191 18.3946 49.3347 18.6395 49.1666C18.8844 48.9986 19.0697 48.7438 19.1953 48.4023Z" fill="white"/>
<path d="M24.684 40.6996C24.4018 41.1536 24.0718 41.5223 23.694 41.8059C23.3085 42.0848 22.8876 42.2756 22.4314 42.3783C21.9799 42.4733 21.5117 42.4757 21.0268 42.3855C20.5467 42.2877 20.0662 42.0965 19.5854 41.8121C19.0968 41.5231 18.6995 41.1897 18.3933 40.8119C18.0794 40.4296 17.8652 40.0235 17.7506 39.5935C17.6329 39.1514 17.618 38.6976 17.7058 38.2321C17.7858 37.7621 17.9716 37.2925 18.2632 36.8234C18.583 36.3089 18.9683 35.9109 19.4192 35.6292C19.867 35.3353 20.3445 35.1728 20.8517 35.1418C21.3512 35.1061 21.8406 35.2146 22.32 35.4672L21.3113 37.09C21.0784 37.004 20.8569 36.9764 20.6468 37.0073C20.4413 37.0307 20.252 37.1049 20.0787 37.2301C19.9024 37.3431 19.7531 37.4979 19.6309 37.6946C19.4945 37.9141 19.4211 38.1345 19.4107 38.356C19.3926 38.5729 19.4296 38.7863 19.522 38.9961C19.6065 39.2014 19.7424 39.4008 19.9297 39.5944C20.1217 39.7804 20.3573 39.956 20.6364 40.1211C21.0475 40.3643 21.4216 40.5132 21.7589 40.5679C22.0931 40.6104 22.3911 40.5746 22.653 40.4604C22.9118 40.3341 23.1235 40.1386 23.2881 39.8738C23.4338 39.6393 23.5197 39.4158 23.5456 39.2035C23.5684 38.979 23.5368 38.774 23.4506 38.5885C23.3613 38.3908 23.2307 38.2256 23.0586 38.0928L24.0674 36.4699C24.5294 36.7846 24.8611 37.1723 25.0627 37.633C25.2642 38.0938 25.335 38.5857 25.2749 39.109C25.2148 39.6322 25.0178 40.1625 24.684 40.6996Z" fill="white"/>
<path d="M29.3162 34.2958C28.9104 34.7606 28.5 35.0123 28.085 35.051C27.6631 35.084 27.207 34.8968 26.7168 34.4894L23.7963 32.0625L22.9494 33.0324L21.7273 32.0169L22.5742 31.0469L21.0622 29.7904L22.2139 28.1847L23.8709 29.5617L24.8237 28.4704L26.0457 29.486L25.093 30.5772L27.7339 32.7718C27.9065 32.9152 28.0592 32.9723 28.1919 32.9431C28.3246 32.9139 28.4556 32.8253 28.585 32.6771L29.1319 32.0506L30.3747 33.0834L29.3162 34.2958Z" fill="white"/>
<path d="M36.744 27.7603C36.2905 28.0694 35.8416 28.246 35.3973 28.2898C34.9529 28.3337 34.5269 28.2409 34.1192 28.0116C33.7063 27.7749 33.3232 27.41 32.9699 26.9168L30.3672 23.2832L32.0064 22.1656L34.3052 25.375C34.5234 25.6796 34.745 25.9117 34.97 26.0714C35.2024 26.226 35.442 26.3055 35.6887 26.3101C35.9376 26.3023 36.1958 26.2072 36.4635 26.0247C36.7385 25.8372 36.926 25.6122 37.0257 25.3499C37.1255 25.0876 37.1521 24.8158 37.1055 24.5345C37.0538 24.246 36.937 23.9748 36.7551 23.7209L34.4485 20.5007L36.0877 19.3831L40.2646 25.2143L38.6923 26.2863L37.8617 25.2658L37.7948 25.3114C37.9162 25.7899 37.8787 26.2472 37.6822 26.6835C37.4879 27.1074 37.1752 27.4663 36.744 27.7603Z" fill="white"/>
<path d="M45.026 23.0566C44.5786 23.251 44.1547 23.3771 43.7541 23.4349C43.3499 23.4847 42.977 23.4724 42.6353 23.3981C42.3018 23.3202 42.0057 23.1825 41.7467 22.9851C41.4841 22.7795 41.2767 22.521 41.1245 22.2093L42.9265 21.4263C43.0436 21.6176 43.1814 21.7563 43.3398 21.8424C43.4946 21.9204 43.6696 21.9558 43.8648 21.9485C44.0646 21.9294 44.2764 21.8713 44.5 21.7741C44.8397 21.6265 45.0647 21.4561 45.1751 21.2629C45.2937 21.066 45.3051 20.8625 45.2091 20.6524C45.1316 20.4826 45.0312 20.3713 44.9077 20.3184C44.7806 20.2574 44.6107 20.2441 44.398 20.2784C44.1899 20.301 43.9192 20.3605 43.5859 20.4569C42.9737 20.6164 42.4438 20.7062 41.9963 20.7263C41.5488 20.7464 41.1748 20.6668 40.8745 20.4873C40.5741 20.3079 40.328 20.008 40.1361 19.5877C39.9442 19.1674 39.8942 18.7533 39.9859 18.3453C40.086 17.9338 40.3085 17.5513 40.6535 17.198C40.9949 16.8366 41.4472 16.5335 42.0106 16.2887C42.5491 16.0546 43.0559 15.9361 43.5311 15.933C44.0108 15.9183 44.4327 16.0159 44.7966 16.2258C45.1651 16.4241 45.454 16.7199 45.6634 17.1132L43.8615 17.8962C43.7803 17.7184 43.6701 17.5968 43.531 17.5313C43.3965 17.4541 43.2418 17.4197 43.0668 17.4279C42.9002 17.4325 42.7215 17.4762 42.531 17.559C42.241 17.685 42.0367 17.8465 41.9181 18.0433C41.8041 18.2285 41.795 18.4261 41.891 18.6363C41.9611 18.7898 42.0638 18.8953 42.1993 18.9527C42.3393 18.9984 42.5299 19.0028 42.7711 18.9657C43.0124 18.9287 43.318 18.8588 43.6881 18.7561C44.2681 18.5913 44.7695 18.5042 45.1921 18.4949C45.6148 18.4856 45.974 18.5765 46.2698 18.7676C46.5618 18.9506 46.8057 19.2563 47.0012 19.6847C47.2042 20.1293 47.2534 20.5632 47.1487 20.9864C47.0524 21.406 46.8216 21.7921 46.4563 22.1445C46.091 22.497 45.6142 22.801 45.026 23.0566Z" fill="white"/>
<path d="M53.5267 14.0476L53.4106 13.4341L53.4422 12.5781L52.8929 13.2575L52.3879 13.6589L51.8581 13.0526L52.3497 12.6535L53.1248 12.2169L52.2435 12.0923L51.6381 11.891L51.911 11.14L52.5297 11.3389L53.289 11.7689L52.946 10.9805L52.8299 10.367L53.6459 10.22L53.7621 10.8334L53.7438 11.687L54.2956 11.0207L54.8006 10.6192L55.317 11.228L54.8388 11.6246L54.0612 12.0482L54.945 12.1858L55.5504 12.3872L55.2775 13.1382L54.6588 12.9393L53.897 12.4962L54.2266 13.2871L54.3428 13.9005L53.5267 14.0476Z" fill="white"/>
<defs>
<linearGradient id="paint0_linear_187_92" x1="126" y1="63" x2="0" y2="63" gradientUnits="userSpaceOnUse">
<stop stop-color="#9BCE71"/>
<stop offset="1" stop-color="#83B757"/>
</linearGradient>
<linearGradient id="paint1_linear_187_92" x1="88" y1="63" x2="38" y2="63" gradientUnits="userSpaceOnUse">
<stop stop-color="#9BCE71"/>
<stop offset="1" stop-color="#83B757"/>
</linearGradient>
</defs>
</svg>
