<svg width="40" height="40" viewBox="0 0 40 40" fill="none" xmlns="http://www.w3.org/2000/svg">
<g clip-path="url(#clip0_1_10752)">
<path d="M20 38.5716C30.2567 38.5716 38.5714 30.2569 38.5714 20.0001C38.5714 9.74342 30.2567 1.42871 20 1.42871C9.7433 1.42871 1.42859 9.74342 1.42859 20.0001C1.42859 30.2569 9.7433 38.5716 20 38.5716Z" stroke="url(#paint0_linear_1_10752)" stroke-width="1.5" stroke-linecap="round" stroke-linejoin="round"/>
<path d="M20 27.1431C23.9449 27.1431 27.1429 23.9452 27.1429 20.0003C27.1429 16.0554 23.9449 12.8574 20 12.8574C16.0551 12.8574 12.8572 16.0554 12.8572 20.0003C12.8572 23.9452 16.0551 27.1431 20 27.1431Z" stroke="url(#paint1_linear_1_10752)" stroke-width="1.5" stroke-linecap="round" stroke-linejoin="round"/>
<path d="M12.8572 20.0003V2.85742" stroke="url(#paint2_linear_1_10752)" stroke-width="1.5" stroke-linecap="round" stroke-linejoin="round"/>
<path d="M20 12.8574H37.1429" stroke="url(#paint3_linear_1_10752)" stroke-width="1.5" stroke-linecap="round" stroke-linejoin="round"/>
<path d="M27.1428 20V37.1429" stroke="url(#paint4_linear_1_10752)" stroke-width="1.5" stroke-linecap="round" stroke-linejoin="round"/>
<path d="M20 27.1431H2.85718" stroke="url(#paint5_linear_1_10752)" stroke-width="1.5" stroke-linecap="round" stroke-linejoin="round"/>
</g>
<defs>
<linearGradient id="paint0_linear_1_10752" x1="38.5714" y1="20.0001" x2="1.42859" y2="20.0001" gradientUnits="userSpaceOnUse">
<stop stop-color="#9BCE71"/>
<stop offset="1" stop-color="#83B757"/>
</linearGradient>
<linearGradient id="paint1_linear_1_10752" x1="27.1429" y1="20.0003" x2="12.8572" y2="20.0003" gradientUnits="userSpaceOnUse">
<stop stop-color="#9BCE71"/>
<stop offset="1" stop-color="#83B757"/>
</linearGradient>
<linearGradient id="paint2_linear_1_10752" x1="13.8572" y1="11.4289" x2="12.8572" y2="11.4289" gradientUnits="userSpaceOnUse">
<stop stop-color="#9BCE71"/>
<stop offset="1" stop-color="#83B757"/>
</linearGradient>
<linearGradient id="paint3_linear_1_10752" x1="37.1429" y1="13.3574" x2="20" y2="13.3574" gradientUnits="userSpaceOnUse">
<stop stop-color="#9BCE71"/>
<stop offset="1" stop-color="#83B757"/>
</linearGradient>
<linearGradient id="paint4_linear_1_10752" x1="28.1428" y1="28.5714" x2="27.1428" y2="28.5714" gradientUnits="userSpaceOnUse">
<stop stop-color="#9BCE71"/>
<stop offset="1" stop-color="#83B757"/>
</linearGradient>
<linearGradient id="paint5_linear_1_10752" x1="20" y1="27.6431" x2="2.85718" y2="27.6431" gradientUnits="userSpaceOnUse">
<stop stop-color="#9BCE71"/>
<stop offset="1" stop-color="#83B757"/>
</linearGradient>
<clipPath id="clip0_1_10752">
<rect width="40" height="40" fill="white"/>
</clipPath>
</defs>
</svg>
