<svg width="31" height="30" viewBox="0 0 31 30" fill="none" xmlns="http://www.w3.org/2000/svg">
<path d="M11.8098 4.82153L12.7312 2.44296C12.8866 2.04024 13.16 1.69384 13.5156 1.44913C13.8712 1.20442 14.2924 1.07281 14.7241 1.07153H16.4812C16.9129 1.07281 17.3341 1.20442 17.6897 1.44913C18.0453 1.69384 18.3187 2.04024 18.4741 2.44296L19.3955 4.82153L22.5241 6.62153L25.0526 6.23582C25.4737 6.17867 25.9022 6.24798 26.2838 6.43494C26.6653 6.6219 26.9827 6.91807 27.1955 7.28582L28.0526 8.78582C28.2723 9.15942 28.3735 9.59085 28.3429 10.0231C28.3123 10.4555 28.1513 10.8683 27.8812 11.2072L26.3169 13.2001V16.8001L27.9241 18.793C28.1942 19.1319 28.3551 19.5448 28.3857 19.9771C28.4163 20.4094 28.3151 20.8408 28.0955 21.2144L27.2384 22.7144C27.0255 23.0821 26.7082 23.3783 26.3266 23.5653C25.9451 23.7522 25.5165 23.8215 25.0955 23.7644L22.5669 23.3787L19.4384 25.1787L18.5169 27.5572C18.3615 27.96 18.0881 28.3064 17.7325 28.5511C17.3769 28.7958 16.9557 28.9274 16.5241 28.9287H14.7241C14.2924 28.9274 13.8712 28.7958 13.5156 28.5511C13.16 28.3064 12.8866 27.96 12.7312 27.5572L11.8098 25.1787L8.68122 23.3787L6.15265 23.7644C5.73161 23.8215 5.30309 23.7522 4.92154 23.5653C4.53998 23.3783 4.22263 23.0821 4.00979 22.7144L3.15265 21.2144C2.93301 20.8408 2.83181 20.4094 2.86242 19.9771C2.89302 19.5448 3.05399 19.1319 3.32407 18.793L4.88836 16.8001V13.2001L3.28122 11.2072C3.01113 10.8683 2.85017 10.4555 2.81956 10.0231C2.78895 9.59085 2.89015 9.15942 3.10979 8.78582L3.96693 7.28582C4.17977 6.91807 4.49713 6.6219 4.87868 6.43494C5.26023 6.24798 5.68875 6.17867 6.10979 6.23582L8.63836 6.62153L11.8098 4.82153ZM11.3169 15.0001C11.3169 15.8477 11.5683 16.6763 12.0392 17.3811C12.5101 18.0859 13.1795 18.6352 13.9626 18.9596C14.7457 19.284 15.6074 19.3688 16.4387 19.2035C17.2701 19.0381 18.0337 18.6299 18.6331 18.0306C19.2325 17.4312 19.6406 16.6676 19.806 15.8362C19.9714 15.0049 19.8865 14.1431 19.5621 13.36C19.2378 12.5769 18.6884 11.9076 17.9837 11.4367C17.2789 10.9657 16.4503 10.7144 15.6026 10.7144C14.466 10.7144 13.3759 11.1659 12.5722 11.9696C11.7685 12.7734 11.3169 13.8635 11.3169 15.0001V15.0001Z" stroke="white" stroke-width="1.5" stroke-linecap="round" stroke-linejoin="round"/>
</svg>
