<svg width="40" height="40" viewBox="0 0 40 40" fill="none" xmlns="http://www.w3.org/2000/svg">
<g clip-path="url(#clip0_1_10764)">
<path d="M20 38.5716C30.2567 38.5716 38.5714 30.2569 38.5714 20.0001C38.5714 9.74342 30.2567 1.42871 20 1.42871C9.7433 1.42871 1.42859 9.74342 1.42859 20.0001C1.42859 30.2569 9.7433 38.5716 20 38.5716Z" stroke="url(#paint0_linear_1_10764)" stroke-width="1.5" stroke-linecap="round" stroke-linejoin="round"/>
<path d="M20 1.42871V38.5716" stroke="url(#paint1_linear_1_10764)" stroke-width="1.5" stroke-linecap="round" stroke-linejoin="round"/>
<path d="M6 32.2003C8.09353 30.9258 9.82394 29.1341 11.0248 26.9975C12.2257 24.8609 12.8567 22.4513 12.8571 20.0003C12.8567 17.5493 12.2257 15.1397 11.0248 13.0031C9.82394 10.8665 8.09353 9.07479 6 7.80029" stroke="url(#paint2_linear_1_10764)" stroke-width="1.5" stroke-linecap="round" stroke-linejoin="round"/>
<path d="M34 7.80029C31.9072 9.07527 30.1776 10.8672 28.9774 13.0037C27.7772 15.1403 27.1468 17.5497 27.1468 20.0003C27.1468 22.4509 27.7772 24.8603 28.9774 26.9968C30.1776 29.1334 31.9072 30.9253 34 32.2003" stroke="url(#paint3_linear_1_10764)" stroke-width="1.5" stroke-linecap="round" stroke-linejoin="round"/>
</g>
<defs>
<linearGradient id="paint0_linear_1_10764" x1="38.5714" y1="20.0001" x2="1.42859" y2="20.0001" gradientUnits="userSpaceOnUse">
<stop stop-color="#9BCE71"/>
<stop offset="1" stop-color="#83B757"/>
</linearGradient>
<linearGradient id="paint1_linear_1_10764" x1="21" y1="20.0001" x2="20" y2="20.0001" gradientUnits="userSpaceOnUse">
<stop stop-color="#9BCE71"/>
<stop offset="1" stop-color="#83B757"/>
</linearGradient>
<linearGradient id="paint2_linear_1_10764" x1="12.8571" y1="20.0003" x2="6" y2="20.0003" gradientUnits="userSpaceOnUse">
<stop stop-color="#9BCE71"/>
<stop offset="1" stop-color="#83B757"/>
</linearGradient>
<linearGradient id="paint3_linear_1_10764" x1="34" y1="20.0003" x2="27.1468" y2="20.0003" gradientUnits="userSpaceOnUse">
<stop stop-color="#9BCE71"/>
<stop offset="1" stop-color="#83B757"/>
</linearGradient>
<clipPath id="clip0_1_10764">
<rect width="40" height="40" fill="white"/>
</clipPath>
</defs>
</svg>
