<svg width="40" height="40" viewBox="0 0 40 40" fill="none" xmlns="http://www.w3.org/2000/svg">
<path d="M12.8583 37.1427C19.1701 37.1427 24.2868 32.0259 24.2868 25.7141C24.2868 19.4023 19.1701 14.2855 12.8583 14.2855C6.54643 14.2855 1.42969 19.4023 1.42969 25.7141C1.42969 32.0259 6.54643 37.1427 12.8583 37.1427Z" stroke="url(#paint0_linear_1_10795)" stroke-width="1.5" stroke-linecap="round" stroke-linejoin="round"/>
<path d="M27.1473 37.1428C33.4591 37.1428 38.5759 32.026 38.5759 25.7142C38.5759 19.4024 33.4591 14.2856 27.1473 14.2856C20.8355 14.2856 15.7188 19.4024 15.7188 25.7142C15.7188 32.026 20.8355 37.1428 27.1473 37.1428Z" stroke="url(#paint1_linear_1_10795)" stroke-width="1.5" stroke-linecap="round" stroke-linejoin="round"/>
<path d="M20.0067 25.7141C26.3185 25.7141 31.4353 20.5973 31.4353 14.2855C31.4353 7.97368 26.3185 2.85693 20.0067 2.85693C13.6949 2.85693 8.57812 7.97368 8.57812 14.2855C8.57812 20.5973 13.6949 25.7141 20.0067 25.7141Z" stroke="url(#paint2_linear_1_10795)" stroke-width="1.5" stroke-linecap="round" stroke-linejoin="round"/>
<defs>
<linearGradient id="paint0_linear_1_10795" x1="24.2868" y1="25.7141" x2="1.42969" y2="25.7141" gradientUnits="userSpaceOnUse">
<stop stop-color="#9BCE71"/>
<stop offset="1" stop-color="#83B757"/>
</linearGradient>
<linearGradient id="paint1_linear_1_10795" x1="38.5759" y1="25.7142" x2="15.7188" y2="25.7142" gradientUnits="userSpaceOnUse">
<stop stop-color="#9BCE71"/>
<stop offset="1" stop-color="#83B757"/>
</linearGradient>
<linearGradient id="paint2_linear_1_10795" x1="31.4353" y1="14.2855" x2="8.57812" y2="14.2855" gradientUnits="userSpaceOnUse">
<stop stop-color="#9BCE71"/>
<stop offset="1" stop-color="#83B757"/>
</linearGradient>
</defs>
</svg>
