<svg width="25" height="24" viewBox="0 0 25 24" fill="none" xmlns="http://www.w3.org/2000/svg">
<path d="M22.3167 5.14271C22.2279 5.01877 22.1065 4.92358 21.9667 4.86843L11.9667 0.977C11.8721 0.934523 11.77 0.912598 11.6667 0.912598C11.5635 0.912598 11.4613 0.934523 11.3667 0.977L1.36671 4.937C1.23459 4.97299 1.11393 5.04391 1.01671 5.14271C0.900288 5.28758 0.83559 5.46907 0.833374 5.657V18.2056C0.835535 18.3768 0.887493 18.5434 0.982549 18.6839C1.07761 18.8245 1.21141 18.9325 1.36671 18.9941L11.3667 22.9541H11.6667H11.9667L21.9667 18.9941C22.122 18.9325 22.2558 18.8245 22.3509 18.6839C22.4459 18.5434 22.4979 18.3768 22.5 18.2056V5.72557C22.5141 5.51426 22.4485 5.30549 22.3167 5.14271V5.14271Z" stroke="white" stroke-width="1.5" stroke-linecap="round" stroke-linejoin="round"/>
<path d="M11.6667 23.0744V9.42871" stroke="white" stroke-width="1.5" stroke-linecap="round" stroke-linejoin="round"/>
<path d="M11.6667 9.42871V23.0744" stroke="white" stroke-width="1.5" stroke-linecap="round" stroke-linejoin="round"/>
<path d="M1.01672 5.21143L11.6667 9.42857L22.3167 5.21143" stroke="white" stroke-width="1.5" stroke-linecap="round" stroke-linejoin="round"/>
</svg>
