<svg width="50" height="50" viewBox="0 0 50 50" fill="none" xmlns="http://www.w3.org/2000/svg">
<path d="M24.3471 33.4745C33.0714 33.4745 40.1437 26.4021 40.1437 17.6779C40.1437 8.95372 33.0714 1.88135 24.3471 1.88135C15.6229 1.88135 8.55054 8.95372 8.55054 17.6779C8.55054 26.4021 15.6229 33.4745 24.3471 33.4745Z" stroke="white" stroke-width="1.5" stroke-linecap="round" stroke-linejoin="round"/>
<path d="M24.3471 24.6986C28.2246 24.6986 31.3678 21.5554 31.3678 17.6779C31.3678 13.8005 28.2246 10.6572 24.3471 10.6572C20.4697 10.6572 17.3264 13.8005 17.3264 17.6779C17.3264 21.5554 20.4697 24.6986 24.3471 24.6986Z" stroke="white" stroke-width="1.5" stroke-linecap="round" stroke-linejoin="round"/>
<path d="M21.293 33.1937L18.2039 46.182C18.1428 46.4288 18.0298 46.6598 17.8724 46.8595C17.715 47.0593 17.5169 47.2232 17.2912 47.3404C17.0531 47.4438 16.7962 47.4971 16.5365 47.4971C16.2769 47.4971 16.02 47.4438 15.7818 47.3404L4.12741 42.2504C3.88295 42.1348 3.66784 41.9654 3.49824 41.7548C3.32864 41.5442 3.20894 41.2979 3.14814 41.0344C3.08734 40.771 3.08701 40.4971 3.14718 40.2335C3.20735 39.9699 3.32645 39.7233 3.49554 39.5123L12.5172 28.209" stroke="white" stroke-width="1.5" stroke-linecap="round" stroke-linejoin="round"/>
<path d="M28.3137 33.0181L31.473 46.182C31.5359 46.433 31.6534 46.667 31.8173 46.8673C31.9811 47.0675 32.1872 47.2291 32.4208 47.3404C32.6525 47.4451 32.9038 47.4992 33.158 47.4992C33.4122 47.4992 33.6635 47.4451 33.8952 47.3404L45.4794 42.2504C45.7275 42.1362 45.9456 41.9657 46.1162 41.7524C46.2868 41.5391 46.4053 41.2889 46.4623 41.0217C46.5288 40.7604 46.5317 40.4869 46.4706 40.2243C46.4095 39.9616 46.2863 39.7174 46.1112 39.5123L36.7035 27.542" stroke="white" stroke-width="1.5" stroke-linecap="round" stroke-linejoin="round"/>
</svg>
