<svg width="30" height="30" viewBox="0 0 30 30" fill="none" xmlns="http://www.w3.org/2000/svg">
<path d="M11.2071 4.82129L12.1286 2.44272C12.284 2.04 12.5574 1.6936 12.9129 1.44889C13.2685 1.20418 13.6898 1.07256 14.1214 1.07129H15.8786C16.3102 1.07256 16.7314 1.20418 17.087 1.44889C17.4426 1.6936 17.716 2.04 17.8714 2.44272L18.7928 4.82129L21.9214 6.62129L24.45 6.23557C24.871 6.17843 25.2995 6.24773 25.6811 6.4347C26.0627 6.62166 26.38 6.91783 26.5928 7.28557L27.45 8.78557C27.6696 9.15918 27.7708 9.5906 27.7402 10.0229C27.7096 10.4552 27.5486 10.8681 27.2786 11.207L25.7143 13.1999V16.7999L27.3214 18.7927C27.5915 19.1317 27.7525 19.5445 27.7831 19.9768C27.8137 20.4091 27.7125 20.8405 27.4928 21.2141L26.6357 22.7141C26.4229 23.0819 26.1055 23.3781 25.724 23.565C25.3424 23.752 24.9139 23.8213 24.4928 23.7641L21.9643 23.3784L18.8357 25.1784L17.9143 27.557C17.7589 27.9597 17.4855 28.3061 17.1299 28.5508C16.7743 28.7955 16.3531 28.9272 15.9214 28.9284H14.1214C13.6898 28.9272 13.2685 28.7955 12.9129 28.5508C12.5574 28.3061 12.284 27.9597 12.1286 27.557L11.2071 25.1784L8.07856 23.3784L5.54999 23.7641C5.12895 23.8213 4.70043 23.752 4.31888 23.565C3.93732 23.3781 3.61996 23.0819 3.40713 22.7141L2.54999 21.2141C2.33035 20.8405 2.22915 20.4091 2.25976 19.9768C2.29036 19.5445 2.45133 19.1317 2.72141 18.7927L4.2857 16.7999V13.1999L2.67856 11.207C2.40847 10.8681 2.2475 10.4552 2.2169 10.0229C2.18629 9.5906 2.28749 9.15918 2.50713 8.78557L3.36427 7.28557C3.57711 6.91783 3.89447 6.62166 4.27602 6.4347C4.65757 6.24773 5.08609 6.17843 5.50713 6.23557L8.0357 6.62129L11.2071 4.82129ZM10.7143 14.9999C10.7143 15.8475 10.9656 16.6761 11.4365 17.3809C11.9075 18.0857 12.5768 18.635 13.3599 18.9593C14.143 19.2837 15.0047 19.3686 15.8361 19.2032C16.6674 19.0379 17.4311 18.6297 18.0304 18.0303C18.6298 17.4309 19.038 16.6673 19.2034 15.836C19.3687 15.0046 19.2838 14.1429 18.9595 13.3598C18.6351 12.5767 18.0858 11.9073 17.381 11.4364C16.6762 10.9655 15.8476 10.7141 15 10.7141C13.8633 10.7141 12.7733 11.1657 11.9695 11.9694C11.1658 12.7731 10.7143 13.8632 10.7143 14.9999V14.9999Z" stroke="white" stroke-width="1.5" stroke-linecap="round" stroke-linejoin="round"/>
</svg>
