<svg width="50" height="50" viewBox="0 0 50 50" fill="none" xmlns="http://www.w3.org/2000/svg">
<path d="M44.6428 5.35718L32.4643 17.5358" stroke="url(#paint0_linear_1_10832)" stroke-width="1.5" stroke-linecap="round" stroke-linejoin="round"/>
<path d="M5.35715 5.35718L17.5357 17.5358" stroke="url(#paint1_linear_1_10832)" stroke-width="1.5" stroke-linecap="round" stroke-linejoin="round"/>
<path d="M5.35715 44.6429L17.5357 32.4644" stroke="url(#paint2_linear_1_10832)" stroke-width="1.5" stroke-linecap="round" stroke-linejoin="round"/>
<path d="M44.6428 44.6429L32.4643 32.4644" stroke="url(#paint3_linear_1_10832)" stroke-width="1.5" stroke-linecap="round" stroke-linejoin="round"/>
<path d="M25 48.2143C37.8209 48.2143 48.2143 37.8209 48.2143 25.0001C48.2143 12.1792 37.8209 1.78577 25 1.78577C12.1791 1.78577 1.78571 12.1792 1.78571 25.0001C1.78571 37.8209 12.1791 48.2143 25 48.2143Z" stroke="url(#paint4_linear_1_10832)" stroke-width="1.5" stroke-linecap="round" stroke-linejoin="round"/>
<path d="M25 35.5358C30.8187 35.5358 35.5357 30.8188 35.5357 25.0001C35.5357 19.1814 30.8187 14.4644 25 14.4644C19.1813 14.4644 14.4643 19.1814 14.4643 25.0001C14.4643 30.8188 19.1813 35.5358 25 35.5358Z" stroke="url(#paint5_linear_1_10832)" stroke-width="1.5" stroke-linecap="round" stroke-linejoin="round"/>
<defs>
<linearGradient id="paint0_linear_1_10832" x1="44.6428" y1="11.4465" x2="32.4643" y2="11.4465" gradientUnits="userSpaceOnUse">
<stop stop-color="#9BCE71"/>
<stop offset="1" stop-color="#83B757"/>
</linearGradient>
<linearGradient id="paint1_linear_1_10832" x1="17.5357" y1="11.4465" x2="5.35715" y2="11.4465" gradientUnits="userSpaceOnUse">
<stop stop-color="#9BCE71"/>
<stop offset="1" stop-color="#83B757"/>
</linearGradient>
<linearGradient id="paint2_linear_1_10832" x1="17.5357" y1="38.5536" x2="5.35715" y2="38.5536" gradientUnits="userSpaceOnUse">
<stop stop-color="#9BCE71"/>
<stop offset="1" stop-color="#83B757"/>
</linearGradient>
<linearGradient id="paint3_linear_1_10832" x1="44.6428" y1="38.5536" x2="32.4643" y2="38.5536" gradientUnits="userSpaceOnUse">
<stop stop-color="#9BCE71"/>
<stop offset="1" stop-color="#83B757"/>
</linearGradient>
<linearGradient id="paint4_linear_1_10832" x1="48.2143" y1="25.0001" x2="1.78571" y2="25.0001" gradientUnits="userSpaceOnUse">
<stop stop-color="#9BCE71"/>
<stop offset="1" stop-color="#83B757"/>
</linearGradient>
<linearGradient id="paint5_linear_1_10832" x1="35.5357" y1="25.0001" x2="14.4643" y2="25.0001" gradientUnits="userSpaceOnUse">
<stop stop-color="#9BCE71"/>
<stop offset="1" stop-color="#83B757"/>
</linearGradient>
</defs>
</svg>
