<svg width="40" height="40" viewBox="0 0 40 40" fill="none" xmlns="http://www.w3.org/2000/svg">
<path d="M30.3999 4.40039H9.59988C9.12035 4.41356 8.65064 4.53939 8.22875 4.76771C7.80685 4.99603 7.44461 5.32043 7.17131 5.71468L1.97131 12.9147C1.58518 13.4603 1.39235 14.1193 1.42341 14.787C1.45446 15.4547 1.70763 16.0929 2.14274 16.6004L17.7427 34.5718C18.0098 34.9159 18.352 35.1944 18.7432 35.386C19.1344 35.5776 19.5643 35.6772 19.9999 35.6772C20.4355 35.6772 20.8653 35.5776 21.2565 35.386C21.6477 35.1944 21.99 34.9159 22.257 34.5718L37.857 16.6004C38.2921 16.0929 38.5453 15.4547 38.5764 14.787C38.6074 14.1193 38.4146 13.4603 38.0285 12.9147L32.8284 5.71468C32.5551 5.32043 32.1929 4.99603 31.771 4.76771C31.3491 4.53939 30.8794 4.41356 30.3999 4.40039V4.40039Z" stroke="url(#paint0_linear_174_24)" stroke-width="1.5" stroke-linecap="round" stroke-linejoin="round"/>
<path d="M18.5142 4.37158L11.5427 15.1716L19.9999 35.6002" stroke="url(#paint1_linear_174_24)" stroke-width="1.5" stroke-linecap="round" stroke-linejoin="round"/>
<path d="M21.5714 4.37158L28.5143 15.1716L20 35.6002" stroke="url(#paint2_linear_174_24)" stroke-width="1.5" stroke-linecap="round" stroke-linejoin="round"/>
<path d="M1.4856 15.1714H38.5142" stroke="url(#paint3_linear_174_24)" stroke-width="1.5" stroke-linecap="round" stroke-linejoin="round"/>
<defs>
<linearGradient id="paint0_linear_174_24" x1="38.5796" y1="20.0388" x2="1.42017" y2="20.0388" gradientUnits="userSpaceOnUse">
<stop stop-color="#9BCE71"/>
<stop offset="1" stop-color="#83B757"/>
</linearGradient>
<linearGradient id="paint1_linear_174_24" x1="19.9999" y1="19.9859" x2="11.5427" y2="19.9859" gradientUnits="userSpaceOnUse">
<stop stop-color="#9BCE71"/>
<stop offset="1" stop-color="#83B757"/>
</linearGradient>
<linearGradient id="paint2_linear_174_24" x1="28.5143" y1="19.9859" x2="20" y2="19.9859" gradientUnits="userSpaceOnUse">
<stop stop-color="#9BCE71"/>
<stop offset="1" stop-color="#83B757"/>
</linearGradient>
<linearGradient id="paint3_linear_174_24" x1="38.5142" y1="15.6714" x2="1.4856" y2="15.6714" gradientUnits="userSpaceOnUse">
<stop stop-color="#9BCE71"/>
<stop offset="1" stop-color="#83B757"/>
</linearGradient>
</defs>
</svg>
