<svg width="30" height="30" viewBox="0 0 30 30" fill="none" xmlns="http://www.w3.org/2000/svg">
<g clip-path="url(#clip0_1_253)">
<path d="M18.2143 10.7139C19.3978 10.7139 20.3572 9.75455 20.3572 8.57108C20.3572 7.38761 19.3978 6.42822 18.2143 6.42822C17.0308 6.42822 16.0714 7.38761 16.0714 8.57108C16.0714 9.75455 17.0308 10.7139 18.2143 10.7139Z" stroke="white" stroke-width="1.5" stroke-linecap="round" stroke-linejoin="round"/>
<path d="M9.64287 21.4285C10.2346 21.4285 10.7143 20.9488 10.7143 20.3571C10.7143 19.7653 10.2346 19.2856 9.64287 19.2856C9.05114 19.2856 8.57144 19.7653 8.57144 20.3571C8.57144 20.9488 9.05114 21.4285 9.64287 21.4285Z" stroke="white" stroke-width="1.5" stroke-linecap="round" stroke-linejoin="round"/>
<path d="M9.64286 13.9283C10.8263 13.9283 11.7857 12.9689 11.7857 11.7854C11.7857 10.602 10.8263 9.64258 9.64286 9.64258C8.45939 9.64258 7.5 10.602 7.5 11.7854C7.5 12.9689 8.45939 13.9283 9.64286 13.9283Z" stroke="white" stroke-width="1.5" stroke-linecap="round" stroke-linejoin="round"/>
<path d="M20.4 26.3141C20.3761 25.8985 20.2317 25.4988 19.9843 25.1639C19.737 24.829 19.3974 24.5735 19.0072 24.4284C18.0379 24.1099 17.2142 23.456 16.6839 22.5844C16.1537 21.7129 15.9518 20.6807 16.1144 19.6735C16.2771 18.6664 16.7938 17.7503 17.5715 17.09C18.3492 16.4297 19.3369 16.0685 20.3572 16.0713H24.3643C25.0516 16.0732 25.7292 15.9098 26.3401 15.5949C26.951 15.2799 27.4772 14.8227 27.8742 14.2617C28.2713 13.7008 28.5277 13.0525 28.6217 12.3717C28.7157 11.6909 28.6445 10.9974 28.4143 10.3499C27.562 7.94337 26.0647 5.81741 24.086 4.20425C22.1072 2.59109 19.7232 1.5528 17.1943 1.20281C14.6655 0.852813 12.0891 1.20459 9.74659 2.21969C7.40411 3.2348 5.38568 4.87418 3.91183 6.95874C2.43797 9.0433 1.56538 11.4928 1.3894 14.0397C1.21342 16.5866 1.74081 19.1329 2.91395 21.4004C4.0871 23.6678 5.86087 25.5692 8.04147 26.8969C10.2221 28.2245 12.7256 28.9273 15.2786 28.9284C16.5394 28.932 17.7944 28.7588 19.0072 28.4141C19.4526 28.2893 19.8383 28.0086 20.094 27.6231C20.3497 27.2376 20.4583 26.773 20.4 26.3141V26.3141Z" stroke="white" stroke-width="1.5" stroke-linecap="round" stroke-linejoin="round"/>
</g>
<defs>
<clipPath id="clip0_1_253">
<rect width="30" height="30" fill="white"/>
</clipPath>
</defs>
</svg>
