<svg width="25" height="25" viewBox="0 0 25 25" fill="none" xmlns="http://www.w3.org/2000/svg">
<g clip-path="url(#clip0_271_284)">
<mask id="mask0_271_284" style="mask-type:luminance" maskUnits="userSpaceOnUse" x="0" y="0" width="25" height="25">
<path d="M25 0.734375H0V24.9279H25V0.734375Z" fill="white"/>
</mask>
<g mask="url(#mask0_271_284)">
<path d="M19.7578 15.7205C19.246 15.2047 18.6286 14.929 17.9744 14.929C17.3253 14.929 16.7027 15.1996 16.1698 15.7154L14.5025 17.3238C14.3653 17.2523 14.228 17.1859 14.0961 17.1196C13.9062 17.0276 13.7268 16.9409 13.5738 16.8489C12.012 15.8889 10.5926 14.638 9.23129 13.0192C8.57171 12.2125 8.12853 11.5334 7.80667 10.844C8.23933 10.461 8.64038 10.0628 9.03079 9.67981C9.17854 9.53682 9.32629 9.38876 9.47404 9.24577C10.582 8.17343 10.582 6.78457 9.47404 5.71227L8.03356 4.31827C7.86999 4.15998 7.70114 3.99658 7.54285 3.83318C7.22627 3.51659 6.89385 3.1898 6.55089 2.88343C6.03907 2.39323 5.427 2.13281 4.78329 2.13281C4.13956 2.13281 3.51694 2.39323 2.9893 2.88343C2.98402 2.88853 2.98402 2.88853 2.97874 2.89364L1.18476 4.64507C0.509379 5.29867 0.124201 6.09523 0.039778 7.01946C-0.0868558 8.51045 0.366916 9.8994 0.71516 10.8083C1.56994 13.0397 2.84683 15.1077 4.75163 17.3238C7.06269 19.9943 9.84338 22.1032 13.0198 23.5892C14.2334 24.1457 15.8532 24.8044 17.663 24.9167C17.7738 24.9218 17.8899 24.927 17.9955 24.927C19.2143 24.927 20.238 24.5031 21.04 23.6606C21.0452 23.6504 21.0558 23.6453 21.061 23.6351C21.3354 23.3134 21.652 23.0223 21.9844 22.7109C22.2113 22.5015 22.4435 22.2819 22.6704 22.0521C23.1927 21.5262 23.4671 20.9134 23.4671 20.2854C23.4671 19.6522 23.1875 19.0446 22.6545 18.534L19.7578 15.7205ZM21.6467 21.0973C21.6415 21.1024 21.6415 21.0973 21.6467 21.0973C21.441 21.3117 21.2299 21.5058 21.003 21.7203C20.66 22.0368 20.3118 22.3688 19.9846 22.7415C19.4517 23.293 18.8239 23.5534 18.0007 23.5534C17.9215 23.5534 17.8371 23.5534 17.758 23.5483C16.1909 23.4513 14.7346 22.8589 13.6424 22.3534C10.656 20.9543 8.03356 18.968 5.85439 16.4506C4.05513 14.352 2.85211 12.4117 2.05537 10.3283C1.56467 9.05682 1.38527 8.06626 1.46441 7.1318C1.51718 6.53437 1.75462 6.03907 2.19256 5.61525L3.99182 3.87403C4.25036 3.63914 4.52473 3.51149 4.79383 3.51149C5.12625 3.51149 5.39534 3.70553 5.56419 3.86893C5.56947 3.87403 5.57474 3.87914 5.58002 3.88425C5.90189 4.1753 6.20792 4.47656 6.52978 4.79826C6.69334 4.96166 6.86219 5.12506 7.03104 5.29356L8.47146 6.68756C9.03079 7.22881 9.03079 7.72923 8.47146 8.27045C8.31849 8.4186 8.17074 8.56666 8.01773 8.70964C7.57451 9.14876 7.15239 9.55723 6.69334 9.95553C6.68279 9.96577 6.67224 9.97085 6.66696 9.9811C6.21319 10.4202 6.29762 10.8492 6.39259 11.1402C6.39787 11.1555 6.40314 11.1708 6.40842 11.1861C6.78304 12.0644 7.31068 12.8916 8.1127 13.8771L8.11798 13.8822C9.57429 15.6184 11.1097 16.9715 12.8035 18.008C13.0198 18.1408 13.2414 18.248 13.4525 18.3501C13.6424 18.4421 13.8218 18.5288 13.9748 18.6208C13.9959 18.631 14.017 18.6463 14.0381 18.6565C14.2175 18.7434 14.3864 18.7842 14.5605 18.7842C14.9985 18.7842 15.2728 18.5187 15.3625 18.4318L17.167 16.6855C17.3465 16.5119 17.6314 16.3026 17.9638 16.3026C18.291 16.3026 18.56 16.5017 18.7235 16.6753C18.7289 16.6805 18.7289 16.6805 18.7341 16.6855L21.6415 19.4991C22.185 20.0199 22.185 20.556 21.6467 21.0973Z" fill="white"/>
<path d="M13.5105 6.48662C14.8929 6.7113 16.1487 7.34447 17.1512 8.31466C18.1537 9.28482 18.8027 10.5001 19.0402 11.838C19.0982 12.175 19.399 12.4098 19.742 12.4098C19.7841 12.4098 19.8211 12.4047 19.8633 12.3996C20.2537 12.3384 20.5123 11.9809 20.449 11.603C20.1641 9.98442 19.3726 8.50869 18.1643 7.33936C16.956 6.17004 15.4311 5.4041 13.7585 5.12837C13.3681 5.0671 13.004 5.3173 12.9354 5.69006C12.8668 6.06281 13.1201 6.42535 13.5105 6.48662Z" fill="white"/>
<path d="M24.9709 11.4067C24.5013 8.74119 23.2033 6.31577 21.2089 4.38561C19.2144 2.45547 16.708 1.19934 13.9538 0.744884C13.5685 0.678504 13.2045 0.933813 13.1359 1.30657C13.0726 1.68443 13.3311 2.03676 13.7216 2.10314C16.1804 2.50653 18.4229 3.635 20.2063 5.3558C21.9897 7.08169 23.1505 9.25183 23.5674 11.6313C23.6254 11.9684 23.9262 12.2032 24.2691 12.2032C24.3114 12.2032 24.3483 12.1981 24.3905 12.193C24.7757 12.1368 25.0395 11.7794 24.9709 11.4067Z" fill="white"/>
</g>
</g>
<defs>
<clipPath id="clip0_271_284">
<rect width="25" height="25" fill="white"/>
</clipPath>
</defs>
</svg>
