<svg width="18" height="18" viewBox="0 0 18 18" fill="none" xmlns="http://www.w3.org/2000/svg">
<g clip-path="url(#clip0_1_10783)">
<path fill-rule="evenodd" clip-rule="evenodd" d="M8.78997 0.608453C8.81802 0.514167 8.90492 0.449097 9.00349 0.449097C9.10206 0.449097 9.18896 0.514167 9.21701 0.608453C9.21701 0.608453 9.6078 1.91838 10.0267 3.32338C10.6941 5.56179 12.4451 7.31278 14.6835 7.98021C16.0885 8.39906 17.3984 8.78985 17.3984 8.78985C17.4927 8.8179 17.5578 8.9048 17.5578 9.00337C17.5578 9.10194 17.4927 9.18884 17.3984 9.21689C17.3984 9.21689 16.0885 9.60768 14.6835 10.0265C12.4451 10.694 10.6941 12.445 10.0267 14.6834C9.6078 16.0884 9.21701 17.3983 9.21701 17.3983C9.18896 17.4926 9.10206 17.5576 9.00349 17.5576C8.90492 17.5576 8.81802 17.4926 8.78997 17.3983C8.78997 17.3983 8.39918 16.0884 7.98032 14.6834C7.3129 12.445 5.5619 10.694 3.3235 10.0265C1.9185 9.60768 0.608575 9.21689 0.608575 9.21689C0.514284 9.18884 0.449219 9.10194 0.449219 9.00337C0.449219 8.9048 0.514284 8.8179 0.608575 8.78985C0.608575 8.78985 1.9185 8.39906 3.3235 7.98021C5.5619 7.31278 7.3129 5.56179 7.98032 3.32338C8.39918 1.91838 8.78997 0.608453 8.78997 0.608453Z" fill="url(#paint0_linear_1_10783)"/>
</g>
<defs>
<linearGradient id="paint0_linear_1_10783" x1="17.5578" y1="9.00337" x2="0.449219" y2="9.00337" gradientUnits="userSpaceOnUse">
<stop stop-color="#9BCE71"/>
<stop offset="1" stop-color="#83B757"/>
</linearGradient>
<clipPath id="clip0_1_10783">
<rect width="18" height="18" fill="white"/>
</clipPath>
</defs>
</svg>
