<svg width="36" height="36" viewBox="0 0 36 36" fill="none" xmlns="http://www.w3.org/2000/svg">
<g clip-path="url(#clip0_28_420)">
<path fill-rule="evenodd" clip-rule="evenodd" d="M17.576 1.21691C17.6321 1.02833 17.8059 0.898193 18.0031 0.898193C18.2002 0.898193 18.374 1.02833 18.4301 1.21691C18.4301 1.21691 19.2117 3.83676 20.0494 6.64676C21.3843 11.1236 24.8862 14.6256 29.3631 15.9604C32.173 16.7981 34.7929 17.5797 34.7929 17.5797C34.9815 17.6358 35.1116 17.8096 35.1116 18.0067C35.1116 18.2039 34.9815 18.3777 34.7929 18.4338C34.7929 18.4338 32.173 19.2154 29.3631 20.0531C24.8862 21.3879 21.3843 24.8899 20.0494 29.3667C19.2117 32.1767 18.4301 34.7966 18.4301 34.7966C18.374 34.9852 18.2002 35.1153 18.0031 35.1153C17.8059 35.1153 17.6321 34.9852 17.576 34.7966C17.576 34.7966 16.7945 32.1767 15.9567 29.3667C14.6219 24.8899 11.1199 21.3879 6.64308 20.0531C3.8331 19.2154 1.21324 18.4338 1.21324 18.4338C1.02466 18.3777 0.894531 18.2039 0.894531 18.0067C0.894531 17.8096 1.02466 17.6358 1.21324 17.5797C1.21324 17.5797 3.8331 16.7981 6.64308 15.9604C11.1199 14.6256 14.6219 11.1236 15.9567 6.64676C16.7945 3.83676 17.576 1.21691 17.576 1.21691Z" fill="white"/>
</g>
<defs>
<clipPath id="clip0_28_420">
<rect width="36" height="36" fill="white"/>
</clipPath>
</defs>
</svg>
