<svg width="40" height="40" viewBox="0 0 40 40" fill="none" xmlns="http://www.w3.org/2000/svg">
<g clip-path="url(#clip0_97_411)">
<path d="M8.57255 38.5748C12.5174 38.5748 15.7154 35.3768 15.7154 31.4319C15.7154 27.487 12.5174 24.2891 8.57255 24.2891C4.62765 24.2891 1.42969 27.487 1.42969 31.4319C1.42969 35.3768 4.62765 38.5748 8.57255 38.5748Z" stroke="url(#paint0_linear_97_411)" stroke-width="2" stroke-linecap="round" stroke-linejoin="round"/>
<path d="M15.7171 8.57302V4.2873C15.7171 3.52954 15.4161 2.80282 14.8802 2.267C14.3444 1.73118 13.6177 1.43016 12.8599 1.43016H9.4885C8.81605 1.41793 8.16083 1.64332 7.6382 2.06665C7.11557 2.48998 6.75904 3.08411 6.63136 3.74445L1.57422 30.0016" stroke="url(#paint1_linear_97_411)" stroke-width="2" stroke-linecap="round" stroke-linejoin="round"/>
<path d="M12.8594 15.7148H27.1451" stroke="url(#paint2_linear_97_411)" stroke-width="2" stroke-linecap="round" stroke-linejoin="round"/>
<path d="M15.7148 22.8594V31.4308" stroke="url(#paint3_linear_97_411)" stroke-width="2" stroke-linecap="round" stroke-linejoin="round"/>
<path d="M31.428 38.5748C35.3729 38.5748 38.5709 35.3768 38.5709 31.4319C38.5709 27.487 35.3729 24.2891 31.428 24.2891C27.4831 24.2891 24.2852 27.487 24.2852 31.4319C24.2852 35.3768 27.4831 38.5748 31.428 38.5748Z" stroke="url(#paint4_linear_97_411)" stroke-width="2" stroke-linecap="round" stroke-linejoin="round"/>
<path d="M24.2852 8.57302V4.2873C24.2852 3.52954 24.5862 2.80282 25.122 2.267C25.6578 1.73118 26.3845 1.43016 27.1423 1.43016H30.5137C31.1862 1.41793 31.8414 1.64332 32.364 2.06665C32.8867 2.48998 33.2432 3.08411 33.3709 3.74445L38.4852 30.0016" stroke="url(#paint5_linear_97_411)" stroke-width="2" stroke-linecap="round" stroke-linejoin="round"/>
<path d="M24.2852 22.8594V31.4308" stroke="url(#paint6_linear_97_411)" stroke-width="2" stroke-linecap="round" stroke-linejoin="round"/>
</g>
<defs>
<linearGradient id="paint0_linear_97_411" x1="15.7154" y1="31.4319" x2="1.42969" y2="31.4319" gradientUnits="userSpaceOnUse">
<stop stop-color="#9BCE71"/>
<stop offset="1" stop-color="#83B757"/>
</linearGradient>
<linearGradient id="paint1_linear_97_411" x1="15.7171" y1="15.7156" x2="1.57422" y2="15.7156" gradientUnits="userSpaceOnUse">
<stop stop-color="#9BCE71"/>
<stop offset="1" stop-color="#83B757"/>
</linearGradient>
<linearGradient id="paint2_linear_97_411" x1="27.1451" y1="16.2148" x2="12.8594" y2="16.2148" gradientUnits="userSpaceOnUse">
<stop stop-color="#9BCE71"/>
<stop offset="1" stop-color="#83B757"/>
</linearGradient>
<linearGradient id="paint3_linear_97_411" x1="16.7148" y1="27.1451" x2="15.7148" y2="27.1451" gradientUnits="userSpaceOnUse">
<stop stop-color="#9BCE71"/>
<stop offset="1" stop-color="#83B757"/>
</linearGradient>
<linearGradient id="paint4_linear_97_411" x1="38.5709" y1="31.4319" x2="24.2852" y2="31.4319" gradientUnits="userSpaceOnUse">
<stop stop-color="#9BCE71"/>
<stop offset="1" stop-color="#83B757"/>
</linearGradient>
<linearGradient id="paint5_linear_97_411" x1="38.4852" y1="15.7156" x2="24.2852" y2="15.7156" gradientUnits="userSpaceOnUse">
<stop stop-color="#9BCE71"/>
<stop offset="1" stop-color="#83B757"/>
</linearGradient>
<linearGradient id="paint6_linear_97_411" x1="25.2852" y1="27.1451" x2="24.2852" y2="27.1451" gradientUnits="userSpaceOnUse">
<stop stop-color="#9BCE71"/>
<stop offset="1" stop-color="#83B757"/>
</linearGradient>
<clipPath id="clip0_97_411">
<rect width="40" height="40" fill="white"/>
</clipPath>
</defs>
</svg>
