<svg width="30" height="31" viewBox="0 0 30 31" fill="none" xmlns="http://www.w3.org/2000/svg">
<g clip-path="url(#clip0_155_223)">
<path d="M18.2141 11.3092C19.3976 11.3092 20.357 10.3498 20.357 9.16629C20.357 7.98283 19.3976 7.02344 18.2141 7.02344C17.0307 7.02344 16.0713 7.98283 16.0713 9.16629C16.0713 10.3498 17.0307 11.3092 18.2141 11.3092Z" stroke="white" stroke-width="1.5" stroke-linecap="round" stroke-linejoin="round"/>
<path d="M9.64272 22.0237C10.2345 22.0237 10.7141 21.544 10.7141 20.9523C10.7141 20.3606 10.2345 19.8809 9.64272 19.8809C9.05098 19.8809 8.57129 20.3606 8.57129 20.9523C8.57129 21.544 9.05098 22.0237 9.64272 22.0237Z" stroke="white" stroke-width="1.5" stroke-linecap="round" stroke-linejoin="round"/>
<path d="M9.64286 14.5235C10.8263 14.5235 11.7857 13.5641 11.7857 12.3807C11.7857 11.1972 10.8263 10.2378 9.64286 10.2378C8.45939 10.2378 7.5 11.1972 7.5 12.3807C7.5 13.5641 8.45939 14.5235 9.64286 14.5235Z" stroke="white" stroke-width="1.5" stroke-linecap="round" stroke-linejoin="round"/>
<path d="M20.4 26.9094C20.3761 26.4937 20.2316 26.094 19.9843 25.7591C19.7369 25.4243 19.3973 25.1687 19.0071 25.0236C18.0379 24.7051 17.2141 24.0513 16.6839 23.1797C16.1536 22.3081 15.9517 21.2759 16.1144 20.2688C16.2771 19.2616 16.7937 18.3455 17.5714 17.6852C18.3491 17.0249 19.3369 16.6637 20.3571 16.6665H24.3642C25.0515 16.6684 25.7292 16.505 26.34 16.1901C26.9509 15.8751 27.4771 15.4179 27.8742 14.8569C28.2713 14.296 28.5276 13.6477 28.6216 12.9669C28.7156 12.2861 28.6445 11.5926 28.4142 10.9451C27.5619 8.53858 26.0646 6.41262 24.0859 4.79946C22.1072 3.18631 19.7231 2.14801 17.1943 1.79802C14.6654 1.44803 12.089 1.7998 9.74653 2.81491C7.40405 3.83001 5.38562 5.4694 3.91177 7.55396C2.43791 9.63851 1.56532 12.0881 1.38934 14.6349C1.21335 17.1818 1.74075 19.7281 2.91389 21.9956C4.08704 24.263 5.86081 26.1644 8.04141 27.4921C10.222 28.8197 12.7256 29.5225 15.2785 29.5236C16.5393 29.5272 17.7943 29.3541 19.0071 29.0094C19.4525 28.8846 19.8382 28.6038 20.0939 28.2183C20.3496 27.8328 20.4582 27.3683 20.4 26.9094V26.9094Z" stroke="white" stroke-width="1.5" stroke-linecap="round" stroke-linejoin="round"/>
</g>
<defs>
<clipPath id="clip0_155_223">
<rect width="30" height="30" fill="white" transform="translate(0 0.595215)"/>
</clipPath>
</defs>
</svg>
