<svg width="18" height="18" viewBox="0 0 18 18" fill="none" xmlns="http://www.w3.org/2000/svg">
<g clip-path="url(#clip0_28_640)">
<path d="M2.34167 9.64293H12.8588L14.1445 3.21436H1.28738C1.19336 3.2147 1.10056 3.23567 1.01551 3.27577C0.930475 3.31588 0.855267 3.37415 0.795195 3.44649C0.735123 3.51882 0.691649 3.60345 0.667838 3.6944C0.644026 3.78536 0.640457 3.88044 0.657382 3.97293L1.71167 9.11578C1.73626 9.26448 1.81335 9.39944 1.92894 9.49615C2.04453 9.59287 2.19096 9.64495 2.34167 9.64293V9.64293Z" stroke="white" stroke-width="1.5" stroke-linecap="round" stroke-linejoin="round"/>
<path d="M14.1469 3.21425L14.6869 1.15711C14.7165 1.0119 14.7954 0.8814 14.9102 0.787683C15.025 0.693966 15.1687 0.642792 15.3169 0.642822H17.3611" stroke="white" stroke-width="1.5" stroke-linecap="round" stroke-linejoin="round"/>
<path d="M12.8602 9.64282L12.3202 12.3428C12.2905 12.488 12.2116 12.6185 12.0968 12.7122C11.982 12.806 11.8384 12.8571 11.6902 12.8571H3.86017" stroke="white" stroke-width="1.5" stroke-linecap="round" stroke-linejoin="round"/>
<path d="M4.50303 17.3572C4.85807 17.3572 5.14588 17.0694 5.14588 16.7144C5.14588 16.3594 4.85807 16.0715 4.50303 16.0715C4.14799 16.0715 3.86017 16.3594 3.86017 16.7144C3.86017 17.0694 4.14799 17.3572 4.50303 17.3572Z" stroke="white" stroke-width="1.5" stroke-linecap="round" stroke-linejoin="round"/>
<path d="M10.9296 17.3572C11.2846 17.3572 11.5724 17.0694 11.5724 16.7144C11.5724 16.3594 11.2846 16.0715 10.9296 16.0715C10.5745 16.0715 10.2867 16.3594 10.2867 16.7144C10.2867 17.0694 10.5745 17.3572 10.9296 17.3572Z" stroke="white" stroke-width="1.5" stroke-linecap="round" stroke-linejoin="round"/>
</g>
<defs>
<clipPath id="clip0_28_640">
<rect width="18" height="18" fill="white"/>
</clipPath>
</defs>
</svg>
