<svg width="25" height="25" viewBox="0 0 25 25" fill="none" xmlns="http://www.w3.org/2000/svg">
<path d="M20.5343 8.92762C20.5343 13.374 12.4986 24.1062 12.4986 24.1062C12.4986 24.1062 4.46289 13.374 4.46289 8.92762C4.46289 6.79642 5.30951 4.7525 6.8165 3.24551C8.32349 1.73852 10.3674 0.891907 12.4986 0.891907C14.6298 0.891907 16.6737 1.73852 18.1807 3.24551C19.6877 4.7525 20.5343 6.79642 20.5343 8.92762V8.92762Z" stroke="white" stroke-width="1.5" stroke-linecap="round" stroke-linejoin="round"/>
<path d="M12.5003 11.6071C13.9797 11.6071 15.1789 10.4079 15.1789 8.92857C15.1789 7.44924 13.9797 6.25 12.5003 6.25C11.021 6.25 9.82178 7.44924 9.82178 8.92857C9.82178 10.4079 11.021 11.6071 12.5003 11.6071Z" stroke="white" stroke-width="1.5" stroke-linecap="round" stroke-linejoin="round"/>
</svg>
