<svg width="173" height="50" viewBox="0 0 173 50" fill="none" xmlns="http://www.w3.org/2000/svg">
<circle cx="25" cy="25" r="25" fill="url(#paint0_linear_28_485)"/>
<path fill-rule="evenodd" clip-rule="evenodd" d="M22.1869 39.3436C26.6982 33.435 30.5913 30.4913 33.8663 30.5125C30.4942 31.709 26.9285 35.7901 23.1694 42.7558C37.8366 45.0298 34.3287 30.7746 39 26.8567C28.1866 26.0255 22.5747 30.1878 22.1643 39.3436H22.1869ZM21.2622 36.5428C22.6676 29.8224 26.1177 26.2293 31.6124 25.7634C31.3611 21.2128 23.5362 15.2328 24.0941 7C9.17646 17.64 8.05911 29.4165 20.742 42.3296C17.7719 32.5208 18.504 24.0498 22.9382 16.9164C21.263 20.0454 20.7043 26.584 21.2622 36.5322V36.5428Z" fill="white"/>
<path d="M66.07 36V14.13H81.94V18.12H69.97L70.75 17.34V36H66.07ZM69.55 27.42V23.61H80.74V27.42H69.55ZM89.9948 36.27C88.7748 36.27 87.6748 36.09 86.6948 35.73C85.7148 35.35 84.8648 34.8 84.1448 34.08C83.4248 33.36 82.8748 32.49 82.4948 31.47C82.1148 30.43 81.9248 29.26 81.9248 27.96C81.9248 26.3 82.2448 24.85 82.8848 23.61C83.5248 22.35 84.4448 21.37 85.6448 20.67C86.8448 19.97 88.2948 19.62 89.9948 19.62C91.1948 19.62 92.2848 19.81 93.2648 20.19C94.2448 20.57 95.0848 21.12 95.7848 21.84C96.5048 22.56 97.0548 23.43 97.4348 24.45C97.8348 25.47 98.0348 26.64 98.0348 27.96C98.0348 29.6 97.7148 31.05 97.0748 32.31C96.4348 33.55 95.5148 34.52 94.3148 35.22C93.1348 35.92 91.6948 36.27 89.9948 36.27ZM89.9648 32.7C90.6848 32.7 91.3148 32.53 91.8548 32.19C92.4148 31.83 92.8348 31.3 93.1148 30.6C93.4148 29.9 93.5648 29.02 93.5648 27.96C93.5648 27.16 93.4848 26.47 93.3248 25.89C93.1648 25.29 92.9248 24.79 92.6048 24.39C92.2848 23.99 91.9048 23.7 91.4648 23.52C91.0248 23.32 90.5348 23.22 89.9948 23.22C89.2748 23.22 88.6348 23.39 88.0748 23.73C87.5348 24.07 87.1148 24.59 86.8148 25.29C86.5148 25.99 86.3648 26.88 86.3648 27.96C86.3648 28.76 86.4448 29.46 86.6048 30.06C86.7848 30.64 87.0348 31.13 87.3548 31.53C87.6748 31.91 88.0548 32.2 88.4948 32.4C88.9348 32.6 89.4248 32.7 89.9648 32.7ZM107.369 36.27C106.149 36.27 105.049 36.09 104.069 35.73C103.089 35.35 102.239 34.8 101.519 34.08C100.799 33.36 100.249 32.49 99.869 31.47C99.489 30.43 99.299 29.26 99.299 27.96C99.299 26.3 99.619 24.85 100.259 23.61C100.899 22.35 101.819 21.37 103.019 20.67C104.219 19.97 105.669 19.62 107.369 19.62C108.569 19.62 109.659 19.81 110.639 20.19C111.619 20.57 112.459 21.12 113.159 21.84C113.879 22.56 114.429 23.43 114.809 24.45C115.209 25.47 115.409 26.64 115.409 27.96C115.409 29.6 115.089 31.05 114.449 32.31C113.809 33.55 112.889 34.52 111.689 35.22C110.509 35.92 109.069 36.27 107.369 36.27ZM107.339 32.7C108.059 32.7 108.689 32.53 109.229 32.19C109.789 31.83 110.209 31.3 110.489 30.6C110.789 29.9 110.939 29.02 110.939 27.96C110.939 27.16 110.859 26.47 110.699 25.89C110.539 25.29 110.299 24.79 109.979 24.39C109.659 23.99 109.279 23.7 108.839 23.52C108.399 23.32 107.909 23.22 107.369 23.22C106.649 23.22 106.009 23.39 105.449 23.73C104.909 24.07 104.489 24.59 104.189 25.29C103.889 25.99 103.739 26.88 103.739 27.96C103.739 28.76 103.819 29.46 103.979 30.06C104.159 30.64 104.409 31.13 104.729 31.53C105.049 31.91 105.429 32.2 105.869 32.4C106.309 32.6 106.799 32.7 107.339 32.7ZM123.333 36.27C122.353 36.27 121.463 36.09 120.663 35.73C119.863 35.35 119.173 34.81 118.593 34.11C118.013 33.39 117.563 32.51 117.243 31.47C116.943 30.43 116.793 29.26 116.793 27.96C116.793 26.2 117.063 24.7 117.603 23.46C118.163 22.2 118.933 21.25 119.913 20.61C120.893 19.95 122.033 19.62 123.333 19.62C124.153 19.62 124.893 19.75 125.553 20.01C126.213 20.25 126.783 20.6 127.263 21.06C127.743 21.5 128.093 22.02 128.313 22.62H128.493V14.13H132.903V36H128.733L128.553 33.27H128.313C127.993 34.17 127.383 34.9 126.483 35.46C125.603 36 124.553 36.27 123.333 36.27ZM124.923 32.7C125.723 32.7 126.383 32.53 126.903 32.19C127.443 31.85 127.843 31.38 128.103 30.78C128.363 30.18 128.493 29.5 128.493 28.74V27.15C128.493 26.37 128.353 25.69 128.073 25.11C127.813 24.51 127.413 24.04 126.873 23.7C126.353 23.36 125.743 23.19 125.043 23.19C124.203 23.19 123.503 23.38 122.943 23.76C122.403 24.14 121.993 24.69 121.713 25.41C121.433 26.11 121.293 26.96 121.293 27.96C121.293 28.92 121.423 29.76 121.683 30.48C121.943 31.2 122.343 31.75 122.883 32.13C123.423 32.51 124.103 32.7 124.923 32.7ZM135.475 36V19.92H139.885V36H135.475ZM137.665 18.03C136.985 18.03 136.425 17.85 135.985 17.49C135.545 17.13 135.325 16.63 135.325 15.99C135.325 15.33 135.545 14.82 135.985 14.46C136.425 14.1 136.985 13.92 137.665 13.92C138.365 13.92 138.935 14.1 139.375 14.46C139.815 14.82 140.035 15.33 140.035 15.99C140.035 16.63 139.815 17.13 139.375 17.49C138.935 17.85 138.365 18.03 137.665 18.03ZM149.408 36.3C147.728 36.3 146.298 35.96 145.118 35.28C143.958 34.6 143.068 33.64 142.448 32.4C141.828 31.16 141.518 29.72 141.518 28.08C141.518 26.34 141.828 24.84 142.448 23.58C143.088 22.32 143.978 21.35 145.118 20.67C146.278 19.97 147.648 19.62 149.228 19.62C151.068 19.62 152.568 20.02 153.728 20.82C154.908 21.62 155.758 22.72 156.278 24.12C156.798 25.52 156.968 27.12 156.788 28.92H145.838C145.838 29.8 145.978 30.55 146.258 31.17C146.558 31.77 146.978 32.22 147.518 32.52C148.058 32.82 148.688 32.97 149.408 32.97C150.248 32.97 150.928 32.8 151.448 32.46C151.968 32.12 152.318 31.67 152.498 31.11H156.668C156.508 32.17 156.098 33.09 155.438 33.87C154.778 34.63 153.928 35.23 152.888 35.67C151.868 36.09 150.708 36.3 149.408 36.3ZM145.838 26.61L145.448 26.19H152.888L152.468 26.61C152.508 25.77 152.388 25.09 152.108 24.57C151.848 24.03 151.468 23.62 150.968 23.34C150.488 23.06 149.908 22.92 149.228 22.92C148.548 22.92 147.948 23.07 147.428 23.37C146.928 23.65 146.538 24.07 146.258 24.63C145.998 25.17 145.858 25.83 145.838 26.61ZM164.711 36.3C163.631 36.3 162.661 36.18 161.801 35.94C160.941 35.68 160.201 35.32 159.581 34.86C158.981 34.4 158.511 33.85 158.171 33.21C157.831 32.55 157.651 31.83 157.631 31.05H161.981C162.041 31.55 162.191 31.96 162.431 32.28C162.671 32.58 162.991 32.81 163.391 32.97C163.811 33.11 164.291 33.18 164.831 33.18C165.651 33.18 166.261 33.03 166.661 32.73C167.081 32.43 167.291 32.02 167.291 31.5C167.291 31.08 167.191 30.76 166.991 30.54C166.791 30.3 166.461 30.12 166.001 30C165.561 29.86 164.961 29.74 164.201 29.64C162.821 29.42 161.671 29.13 160.751 28.77C159.831 28.41 159.151 27.91 158.711 27.27C158.271 26.63 158.051 25.79 158.051 24.75C158.051 23.71 158.331 22.81 158.891 22.05C159.471 21.29 160.271 20.7 161.291 20.28C162.311 19.84 163.501 19.62 164.861 19.62C166.161 19.62 167.291 19.83 168.251 20.25C169.231 20.65 169.991 21.23 170.531 21.99C171.091 22.73 171.401 23.6 171.461 24.6H167.111C167.111 24.16 167.001 23.81 166.781 23.55C166.581 23.27 166.301 23.06 165.941 22.92C165.601 22.78 165.201 22.71 164.741 22.71C164.041 22.71 163.481 22.86 163.061 23.16C162.661 23.44 162.461 23.84 162.461 24.36C162.461 24.74 162.571 25.05 162.791 25.29C163.031 25.51 163.411 25.69 163.931 25.83C164.451 25.97 165.131 26.1 165.971 26.22C167.291 26.4 168.381 26.67 169.241 27.03C170.101 27.39 170.741 27.9 171.161 28.56C171.581 29.2 171.791 30.05 171.791 31.11C171.791 32.21 171.491 33.15 170.891 33.93C170.311 34.71 169.491 35.3 168.431 35.7C167.371 36.1 166.131 36.3 164.711 36.3Z" fill="white"/>
<defs>
<linearGradient id="paint0_linear_28_485" x1="50" y1="25" x2="0" y2="25" gradientUnits="userSpaceOnUse">
<stop stop-color="#9BCE71"/>
<stop offset="1" stop-color="#83B757"/>
</linearGradient>
</defs>
</svg>
